<svg xmlns="http://www.w3.org/2000/svg" viewBox="0 0 13 14" enable-background="new 0 0 13 14"><style type="text/css">.st0{fill:#1C1C1B;}</style><title>calendar</title><path class="st0" d="M13 3v10c0 .6-.4 1-1 1h-11c-.3 0-.5-.1-.7-.3-.1-.2-.3-.5-.3-.7v-10c0-.3.1-.5.3-.7.2-.2.5-.3.7-.3h1v-.7c0-.3.1-.6.3-.9.3-.3.6-.4.9-.4h.5c.3 0 .6.1.9.4.3.2.4.5.4.9v.7h3v-.7c0-.3.1-.6.3-.9.3-.3.6-.4.9-.4h.5c.3 0 .6.1.9.4.2.2.4.5.4.8v.8h1c.5 0 1 .4 1 1zm-12 4.2h2.2v-2.2h-2.2v2.2zm0 3h2.2v-2.5h-2.2v2.5zm0 2.8h2.2v-2.2h-2.2v2.2zm3-9.5v-2.2c0-.2-.1-.3-.2-.3h-.6c-.1 0-.2.1-.2.3v2.2c0 .1.1.2.2.2h.4c.1 0 .1 0 .2-.1.2.1.2 0 .2-.1zm-.3 3.7h2.5v-2.2h-2.5v2.2zm0 3h2.5v-2.5h-2.5v2.5zm0 2.8h2.5v-2.2h-2.5v2.2zm3-5.8h2.5v-2.2h-2.5v2.2zm0 3h2.5v-2.5h-2.5v2.5zm0 2.8h2.5v-2.2h-2.5v2.2zm3.3-9.5v-2.2c0-.2-.1-.3-.3-.3h-.5c-.1 0-.2.1-.2.2v2.3c0 .1.1.2.2.2h.5c.1 0 .1 0 .2-.1 0 0 .1 0 .1-.1zm-.3 3.7h2.3v-2.2h-2.3v2.2zm0 3h2.3v-2.5h-2.3v2.5zm0 2.8h2.3v-2.2h-2.3v2.2z"/></svg>