<svg xmlns="http://www.w3.org/2000/svg" viewBox="0 0 15 14" enable-background="new 0 0 15 14"><style type="text/css">.st0{fill:#1C1C1B;}</style><title>card</title><path class="st0" d="M13.8.9c.3 0 .7.1.9.4.2.2.3.6.3.9v9.5c0 .7-.6 1.2-1.2 1.2h-12.6c-.3 0-.7-.1-.9-.4-.2-.2-.3-.5-.3-.8v-9.5c0-.3.1-.7.4-.9.2-.2.5-.4.9-.4h12.5zm-12.6 1c-.1 0-.2.2-.2.3v1.8h13v-1.8c0-.1-.1-.2-.2-.2h-12.6zm12.6 10c.1 0 .1 0 .2-.1 0 0 .1-.1.1-.2v-4.7h-13.1v4.8c0 .1 0 .1.1.2 0 0 .1.1.2.1h12.5zm-11.8-1v-1h2v1h-2zm3 0v-1h3v1h-3z"/></svg>