<svg xmlns="http://www.w3.org/2000/svg" viewBox="0 0 15 14" enable-background="new 0 0 15 14"><style type="text/css">.st0{fill:#1C1C1B;}</style><title>cart</title><path class="st0" d="M14 3v4c0 .1 0 .2-.1.3-.1.1-.2.2-.3.2l-8.2 1 .1.5c0 .2-.1.3-.2.5h7.2c.3 0 .5.2.5.5s-.2.5-.5.5h-8c-.3 0-.5-.2-.5-.5 0-.1 0-.2.1-.2l.1-.3.2-.3.1-.2-1.4-6.5h-1.6c-.3 0-.5-.2-.5-.5s.2-.5.5-.5h2.2l.2.1.1.2v.7h9.5c.3 0 .5.2.5.5zm-8.3 7.8c.4.3.5 1 .2 1.4s-1 .5-1.4.2l-.2-.2c-.4-.3-.5-1-.2-1.4s1-.5 1.4-.2l.2.2zm7 0c.4.4.4 1 0 1.4s-1 .4-1.4 0c-.4-.4-.4-1 0-1.4.2-.2.4-.3.7-.3.3 0 .5.1.7.3z"/></svg>