<svg xmlns="http://www.w3.org/2000/svg" viewBox="0 0 15 14" enable-background="new 0 0 15 14"><style type="text/css">.st0{fill:#1C1C1B;}</style><title>checkmark-filled-circle</title><path class="st0" d="M12.7 4c-.5-.9-1.3-1.7-2.2-2.2-.9-.5-1.9-.8-3-.8s-2.1.3-3 .8c-.9.5-1.7 1.3-2.2 2.2-.5.9-.8 1.9-.8 3s.3 2.1.8 3c.5.9 1.3 1.7 2.2 2.2.9.5 1.9.8 3 .8s2.1-.3 3-.8c.9-.5 1.7-1.3 2.2-2.2.5-.9.8-1.9.8-3s-.3-2.1-.8-3zm-1.3 2.1l-4.2 4.2c-.1.1-.2.2-.4.1-.1 0-.3-.1-.3-.1l-2.9-2.8c-.1-.1-.1-.2-.1-.3 0-.1 0-.3.1-.4l.7-.7c.2-.2.5-.2.7 0l1.8 1.8 3.2-3.2c.2-.2.5-.2.7 0l.7.7c.1.1.1.2.1.4.1.1 0 .2-.1.3z"/></svg>