<?xml version="1.0" encoding="utf-8"?>
<!-- Generator: Adobe Illustrator 20.0.0, SVG Export Plug-In . SVG Version: 6.00 Build 0)  -->
<svg version="1.1" xmlns="http://www.w3.org/2000/svg" xmlns:xlink="http://www.w3.org/1999/xlink" x="0px" y="0px"
	 viewBox="0 0 15 14" style="enable-background:new 0 0 15 14;" xml:space="preserve">
<style type="text/css">
	.st0{display:none;}
	.st1{display:inline;fill:#FFFFFF;}
	.st2{display:inline;}
	.st3{display:inline;fill:#010202;}
	.st4{fill:#010202;}
	.st5{display:inline;fill-rule:evenodd;clip-rule:evenodd;}
</style>
<g id="FONDO" class="st0">
	<rect x="0" y="0" class="st1" width="15" height="14"/>
</g>
<g id="fotos" class="st0">
	<g class="st2">
		<path d="M13,2.5c0.6,0,1,0.2,1.4,0.6C14.8,3.5,15,4,15,4.5v7c0,0.6-0.2,1-0.6,1.4c-0.4,0.4-0.9,0.6-1.4,0.6H2
			c-0.6,0-1-0.2-1.4-0.6C0.2,12.5,0,12,0,11.5v-7c0-0.6,0.2-1,0.6-1.4C1,2.7,1.5,2.5,2,2.5h1.7l0.4-1.1C4.3,1.2,4.4,1,4.7,0.8
			C5,0.6,5.2,0.5,5.5,0.5h4c0.3,0,0.5,0.1,0.8,0.3c0.3,0.2,0.4,0.4,0.5,0.7l0.4,1.1H13z M5,10.5c0.7,0.7,1.5,1,2.5,1s1.8-0.3,2.5-1
			C10.7,9.8,11,9,11,8c0-1-0.3-1.8-1-2.5c-0.7-0.7-1.5-1-2.5-1S5.7,4.8,5,5.5C4.3,6.2,4,7,4,8C4,9,4.3,9.8,5,10.5z M5.9,6.4
			c0.4-0.4,1-0.7,1.6-0.7S8.6,6,9.1,6.4c0.4,0.4,0.7,1,0.7,1.6S9.5,9.1,9.1,9.6c-0.4,0.4-1,0.7-1.6,0.7S6.4,10,5.9,9.6
			C5.5,9.1,5.3,8.6,5.3,8S5.5,6.9,5.9,6.4z"/>
	</g>
</g>
<g id="musica" class="st0">
	<g class="st2">
		<path d="M15,7.5c0,1-0.2,1.9-0.5,2.8l-0.2,0.4l-1.7,0.3c-0.1,0.5-0.4,0.9-0.8,1.2c-0.4,0.3-0.9,0.5-1.4,0.5v0.3
			c0,0.1,0,0.2-0.1,0.2c-0.1,0.1-0.1,0.1-0.2,0.1H9.5c-0.1,0-0.2,0-0.2-0.1c-0.1-0.1-0.1-0.1-0.1-0.2V7.9c0-0.1,0-0.2,0.1-0.2
			c0.1-0.1,0.1-0.1,0.2-0.1h0.6c0.1,0,0.2,0,0.2,0.1c0.1,0.1,0.1,0.1,0.1,0.2v0.3c0.4,0,0.8,0.1,1.2,0.3c0.4,0.2,0.6,0.5,0.8,0.9
			L13,9.2c0.2-0.6,0.3-1.2,0.3-1.7c0-0.9-0.3-1.7-0.8-2.5c-0.5-0.8-1.2-1.4-2.1-1.9C9.5,2.6,8.5,2.4,7.5,2.4c-1,0-2,0.2-2.8,0.7
			S3.1,4.2,2.5,5C2,5.8,1.7,6.6,1.7,7.5c0,0.6,0.1,1.2,0.3,1.7l0.6,0.1C2.8,9,3.1,8.7,3.4,8.5c0.4-0.2,0.7-0.3,1.2-0.3V7.9
			c0-0.1,0-0.2,0.1-0.2c0.1-0.1,0.1-0.1,0.2-0.1h0.6c0.1,0,0.2,0,0.2,0.1c0.1,0.1,0.1,0.1,0.1,0.2v5.2c0,0.1,0,0.2-0.1,0.2
			c-0.1,0.1-0.1,0.1-0.2,0.1H4.9c-0.1,0-0.2,0-0.2-0.1c-0.1-0.1-0.1-0.1-0.1-0.2v-0.3c-0.5,0-1-0.2-1.4-0.5
			c-0.4-0.3-0.7-0.7-0.8-1.2l-1.7-0.3l-0.2-0.4C0.2,9.4,0,8.5,0,7.5c0-0.9,0.2-1.8,0.6-2.6s0.9-1.6,1.6-2.2s1.5-1.1,2.4-1.5
			s1.9-0.6,2.9-0.6s2,0.2,2.9,0.6c0.9,0.4,1.7,0.9,2.4,1.5S14,4,14.4,4.9S15,6.6,15,7.5z"/>
	</g>
</g>
<g id="juegos" class="st0">
	<g class="st2">
		<path d="M13.8,4.2C14.6,5,15,5.9,15,7c0,1.1-0.4,2-1.2,2.8C13,10.6,12.1,11,11,11c-1,0-1.9-0.3-2.6-1H6.7C5.9,10.7,5,11,4,11
			c-1.1,0-2-0.4-2.8-1.2C0.4,9,0,8.1,0,7c0-1.1,0.4-2,1.2-2.8C2,3.4,2.9,3,4,3h7C12.1,3,13,3.4,13.8,4.2z M6.5,7.5v-1
			c0-0.1,0-0.1-0.1-0.2c0,0-0.1-0.1-0.2-0.1H4.8V4.8c0-0.1,0-0.1-0.1-0.2c0,0-0.1-0.1-0.2-0.1h-1c-0.1,0-0.1,0-0.2,0.1
			S3.3,4.7,3.3,4.8v1.5H1.8c-0.1,0-0.1,0-0.2,0.1S1.5,6.4,1.5,6.5v1c0,0.1,0,0.1,0.1,0.2c0,0,0.1,0.1,0.2,0.1h1.5v1.5
			c0,0.1,0,0.1,0.1,0.2c0,0,0.1,0.1,0.2,0.1h1c0.1,0,0.1,0,0.2-0.1c0,0,0.1-0.1,0.1-0.2V7.7h1.5c0.1,0,0.1,0,0.2-0.1
			C6.5,7.6,6.5,7.6,6.5,7.5z M10.7,8.7C10.9,8.5,11,8.3,11,8c0-0.3-0.1-0.5-0.3-0.7C10.5,7.1,10.3,7,10,7C9.7,7,9.5,7.1,9.3,7.3
			C9.1,7.5,9,7.7,9,8c0,0.3,0.1,0.5,0.3,0.7C9.5,8.9,9.7,9,10,9C10.3,9,10.5,8.9,10.7,8.7z M12.7,6.7C12.9,6.5,13,6.3,13,6
			c0-0.3-0.1-0.5-0.3-0.7C12.5,5.1,12.3,5,12,5c-0.3,0-0.5,0.1-0.7,0.3C11.1,5.5,11,5.7,11,6c0,0.3,0.1,0.5,0.3,0.7
			C11.5,6.9,11.7,7,12,7C12.3,7,12.5,6.9,12.7,6.7z"/>
	</g>
</g>
<g id="video" class="st0">
	<path class="st2" d="M14.6,0.9c-0.2-0.2-0.5-0.4-0.9-0.4H1.2c-0.3,0-0.6,0.1-0.9,0.4C0.1,1.1,0,1.4,0,1.8v10.5
		c0,0.3,0.1,0.6,0.4,0.9c0.2,0.2,0.5,0.4,0.9,0.4h12.5c0.3,0,0.6-0.1,0.9-0.4s0.4-0.5,0.4-0.9V1.8C15,1.4,14.9,1.1,14.6,0.9z M3,12
		c0,0.1,0,0.3-0.1,0.4c-0.1,0.1-0.2,0.1-0.4,0.1h-1c-0.1,0-0.3-0.1-0.4-0.1C1,12.3,1,12.1,1,12v-1c0-0.1,0-0.3,0.1-0.4
		c0.1-0.1,0.2-0.1,0.4-0.1h1c0.1,0,0.3,0.1,0.4,0.1C3,10.7,3,10.9,3,11V12z M3,9c0,0.1,0,0.3-0.1,0.4C2.8,9.5,2.6,9.5,2.5,9.5h-1
		c-0.1,0-0.3,0-0.4-0.1C1,9.3,1,9.1,1,9V8c0-0.1,0-0.3,0.1-0.4s0.2-0.1,0.4-0.1h1c0.1,0,0.3,0,0.4,0.1S3,7.9,3,8V9z M3,6
		c0,0.1,0,0.3-0.1,0.4C2.8,6.5,2.6,6.5,2.5,6.5h-1c-0.1,0-0.3,0-0.4-0.1C1,6.3,1,6.1,1,6V5c0-0.1,0-0.3,0.1-0.4
		c0.1-0.1,0.2-0.1,0.4-0.1h1c0.1,0,0.3,0,0.4,0.1C3,4.7,3,4.9,3,5V6z M3,3c0,0.1,0,0.3-0.1,0.4S2.6,3.5,2.5,3.5h-1
		c-0.1,0-0.3,0-0.4-0.1S1,3.1,1,3V2c0-0.1,0-0.3,0.1-0.4c0.1-0.1,0.2-0.1,0.4-0.1h1c0.1,0,0.3,0,0.4,0.1C3,1.7,3,1.9,3,2V3z M11,12
		c0,0.1-0.1,0.3-0.1,0.4c-0.1,0.1-0.2,0.1-0.4,0.1h-6c-0.1,0-0.3-0.1-0.4-0.1C4,12.3,4,12.1,4,12V8c0-0.1,0-0.3,0.1-0.4
		s0.2-0.1,0.4-0.1h6c0.1,0,0.3,0,0.4,0.1C10.9,7.7,11,7.9,11,8V12z M11,6c0,0.1-0.1,0.3-0.1,0.4c-0.1,0.1-0.2,0.1-0.4,0.1h-6
		c-0.1,0-0.3,0-0.4-0.1C4,6.3,4,6.1,4,6V2c0-0.1,0-0.3,0.1-0.4c0.1-0.1,0.2-0.1,0.4-0.1h6c0.1,0,0.3,0,0.4,0.1C10.9,1.7,11,1.9,11,2
		V6z M14,12c0,0.1-0.1,0.3-0.1,0.4c-0.1,0.1-0.2,0.1-0.4,0.1h-1c-0.1,0-0.3-0.1-0.4-0.1C12,12.3,12,12.1,12,12v-1
		c0-0.1,0-0.3,0.1-0.4c0.1-0.1,0.2-0.1,0.4-0.1h1c0.1,0,0.3,0.1,0.4,0.1c0.1,0.1,0.1,0.2,0.1,0.4V12z M14,9c0,0.1-0.1,0.3-0.1,0.4
		c-0.1,0.1-0.2,0.1-0.4,0.1h-1c-0.1,0-0.3,0-0.4-0.1C12,9.3,12,9.1,12,9V8c0-0.1,0-0.3,0.1-0.4s0.2-0.1,0.4-0.1h1
		c0.1,0,0.3,0,0.4,0.1C13.9,7.7,14,7.9,14,8V9z M14,6c0,0.1-0.1,0.3-0.1,0.4c-0.1,0.1-0.2,0.1-0.4,0.1h-1c-0.1,0-0.3,0-0.4-0.1
		C12,6.3,12,6.1,12,6V5c0-0.1,0-0.3,0.1-0.4c0.1-0.1,0.2-0.1,0.4-0.1h1c0.1,0,0.3,0,0.4,0.1C13.9,4.7,14,4.9,14,5V6z M14,3
		c0,0.1-0.1,0.3-0.1,0.4c-0.1,0.1-0.2,0.1-0.4,0.1h-1c-0.1,0-0.3,0-0.4-0.1S12,3.1,12,3V2c0-0.1,0-0.3,0.1-0.4
		c0.1-0.1,0.2-0.1,0.4-0.1h1c0.1,0,0.3,0,0.4,0.1C13.9,1.7,14,1.9,14,2V3z"/>
</g>
<g id="menu-hamburguer" class="st0">
	<g class="st2">
		<path d="M13.5,2.5v1c0,0.1,0,0.3-0.1,0.4C13.3,4,13.1,4,13,4H2C1.9,4,1.7,4,1.6,3.9C1.5,3.8,1.5,3.6,1.5,3.5v-1
			c0-0.1,0-0.3,0.1-0.4C1.7,2,1.9,2,2,2h11c0.1,0,0.3,0,0.4,0.1C13.5,2.2,13.5,2.4,13.5,2.5z M13.5,6.5v1c0,0.1,0,0.3-0.1,0.4
			C13.3,8,13.1,8,13,8H2C1.9,8,1.7,8,1.6,7.9C1.5,7.8,1.5,7.6,1.5,7.5v-1c0-0.1,0-0.3,0.1-0.4C1.7,6,1.9,6,2,6h11
			c0.1,0,0.3,0,0.4,0.1C13.5,6.2,13.5,6.4,13.5,6.5z M13.5,10.5v1c0,0.1,0,0.3-0.1,0.4C13.3,12,13.1,12,13,12H2
			c-0.1,0-0.3,0-0.4-0.1c-0.1-0.1-0.1-0.2-0.1-0.4v-1c0-0.1,0-0.3,0.1-0.4C1.7,10,1.9,10,2,10h11c0.1,0,0.3,0,0.4,0.1
			C13.5,10.2,13.5,10.4,13.5,10.5z"/>
	</g>
</g>
<g id="phone" class="st0">
	<g class="st2">
		<path d="M13,10.2c0,0.1,0,0.3-0.1,0.6s-0.1,0.4-0.2,0.5c-0.1,0.3-0.4,0.5-1,0.8c-0.5,0.3-1,0.4-1.5,0.4c-0.1,0-0.3,0-0.4,0
			c-0.1,0-0.3-0.1-0.4-0.1s-0.3-0.1-0.4-0.1c-0.1,0-0.2-0.1-0.4-0.2S8.4,12,8.3,12c-0.5-0.2-1-0.4-1.4-0.6c-0.7-0.4-1.4-1-2.1-1.7
			S3.6,8.2,3.2,7.6C2.9,7.2,2.7,6.7,2.5,6.2c0,0-0.1-0.2-0.1-0.4C2.3,5.6,2.3,5.5,2.2,5.4c0-0.1-0.1-0.2-0.1-0.4
			C2.1,4.8,2,4.7,2,4.6s0-0.3,0-0.4c0-0.5,0.1-1,0.4-1.5c0.3-0.5,0.6-0.8,0.8-1c0.1-0.1,0.3-0.1,0.5-0.2C4,1.5,4.2,1.5,4.3,1.5
			c0.1,0,0.1,0,0.2,0c0.1,0,0.2,0.2,0.4,0.6C4.9,2.2,5,2.4,5.1,2.5C5.2,2.7,5.3,2.9,5.4,3s0.2,0.3,0.2,0.4c0,0,0.1,0.1,0.1,0.2
			s0.1,0.2,0.2,0.3C6,4,6,4.1,6,4.1c0,0.1-0.1,0.2-0.2,0.4S5.5,4.8,5.3,5C5.1,5.1,5,5.2,4.8,5.4C4.7,5.5,4.6,5.6,4.6,5.7
			c0,0,0,0.1,0,0.2s0,0.1,0.1,0.2c0,0,0.1,0.1,0.1,0.2c0.1,0.1,0.1,0.1,0.1,0.1c0.4,0.7,0.8,1.3,1.4,1.8c0.5,0.5,1.1,1,1.8,1.4
			c0,0,0.1,0,0.1,0.1s0.2,0.1,0.2,0.1c0,0,0.1,0,0.2,0.1c0.1,0,0.1,0,0.2,0c0.1,0,0.2-0.1,0.4-0.2s0.3-0.3,0.4-0.5
			C9.7,9,9.8,8.9,10,8.7s0.3-0.2,0.4-0.2c0.1,0,0.1,0,0.2,0.1c0.1,0,0.2,0.1,0.3,0.2C11,8.8,11,8.8,11,8.9c0.1,0.1,0.3,0.2,0.4,0.2
			c0.1,0.1,0.3,0.2,0.5,0.3c0.2,0.1,0.3,0.2,0.4,0.2c0.4,0.2,0.6,0.3,0.6,0.4C13,10.1,13,10.1,13,10.2z"/>
	</g>
</g>
<g id="card" class="st0">
	<g class="st2">
		<path d="M13.8,0.9c0.3,0,0.6,0.1,0.9,0.4C14.9,1.5,15,1.8,15,2.2v9.5c0,0.3-0.1,0.6-0.4,0.9s-0.5,0.4-0.9,0.4H1.2
			c-0.3,0-0.6-0.1-0.9-0.4S0,12,0,11.7V2.2c0-0.3,0.1-0.6,0.4-0.9c0.2-0.2,0.5-0.4,0.9-0.4H13.8z M1.2,1.9C1.2,1.9,1.1,2,1.1,2
			C1,2.1,1,2.1,1,2.2v1.8h13V2.2c0-0.1,0-0.1-0.1-0.2c0,0-0.1-0.1-0.2-0.1H1.2z M13.8,11.9c0.1,0,0.1,0,0.2-0.1c0,0,0.1-0.1,0.1-0.2
			V6.9H1v4.8c0,0.1,0,0.1,0.1,0.2c0,0,0.1,0.1,0.2,0.1H13.8z M2,10.9v-1h2v1H2z M5,10.9v-1h3v1H5z"/>
	</g>
</g>
<g id="marker" class="st0">
	<g class="st2">
		<path d="M11.5,5c0,0.6-0.1,1-0.3,1.4l-2.8,6c-0.1,0.2-0.2,0.3-0.4,0.4S7.7,13,7.5,13S7.1,13,7,12.9s-0.3-0.2-0.4-0.4l-2.9-6
			C3.6,6,3.5,5.6,3.5,5c0-1.1,0.4-2,1.2-2.8S6.4,1,7.5,1s2,0.4,2.8,1.2S11.5,3.9,11.5,5z M8.9,6.4C9.3,6,9.5,5.6,9.5,5
			c0-0.6-0.2-1-0.6-1.4S8.1,3,7.5,3s-1,0.2-1.4,0.6S5.5,4.4,5.5,5c0,0.6,0.2,1,0.6,1.4S6.9,7,7.5,7S8.5,6.8,8.9,6.4z"/>
	</g>
</g>
<g id="heart" class="st0">
	<g class="st2">
		<path d="M7.5,13c-0.1,0-0.2,0-0.3-0.1L2.3,8.2C2.2,8.1,2.2,8,2.1,8S1.8,7.7,1.6,7.4C1.4,7.2,1.3,6.9,1.1,6.7
			C0.9,6.4,0.8,6.1,0.7,5.7C0.6,5.4,0.5,5,0.5,4.7c0-1.1,0.3-2,1-2.7c0.7-0.6,1.6-1,2.7-1c0.3,0,0.7,0.1,1,0.2
			c0.3,0.1,0.6,0.3,0.9,0.5C6.4,1.8,6.7,2,6.9,2.2c0.2,0.2,0.4,0.3,0.6,0.5c0.2-0.2,0.4-0.4,0.6-0.5C8.3,2,8.6,1.8,8.8,1.6
			c0.3-0.2,0.6-0.3,0.9-0.5c0.3-0.1,0.7-0.2,1-0.2c1.2,0,2.1,0.3,2.7,1c0.7,0.6,1,1.5,1,2.7c0,1.2-0.6,2.3-1.8,3.5l-4.9,4.7
			C7.8,13,7.6,13,7.5,13z"/>
	</g>
</g>
<g id="info" class="st0">
	<g class="st2">
		<path d="M12.7,4c0.5,0.9,0.8,1.9,0.8,3c0,1.1-0.3,2.1-0.8,3c-0.5,0.9-1.3,1.6-2.2,2.2S8.6,13,7.5,13s-2.1-0.3-3-0.8
			S2.8,10.9,2.3,10C1.8,9.1,1.5,8.1,1.5,7c0-1.1,0.3-2.1,0.8-3c0.5-0.9,1.3-1.6,2.2-2.2C5.4,1.3,6.4,1,7.5,1s2.1,0.3,3,0.8
			C11.4,2.3,12.2,3.1,12.7,4z M9.5,10.8V9.5c0-0.1,0-0.1-0.1-0.2S9.3,9.2,9.2,9.2H8.5v-4c0-0.1,0-0.1-0.1-0.2S8.3,5,8.2,5H5.7
			C5.7,5,5.6,5,5.6,5.1S5.5,5.2,5.5,5.2v1.2c0,0.1,0,0.1,0.1,0.2s0.1,0.1,0.2,0.1h0.8v2.5H5.7c-0.1,0-0.1,0-0.2,0.1S5.5,9.4,5.5,9.5
			v1.2c0,0.1,0,0.1,0.1,0.2S5.7,11,5.7,11h3.5c0.1,0,0.1,0,0.2-0.1S9.5,10.8,9.5,10.8z M8.5,3.8V2.5c0-0.1,0-0.1-0.1-0.2
			S8.3,2.2,8.2,2.2H6.7c-0.1,0-0.1,0-0.2,0.1S6.5,2.4,6.5,2.5v1.2c0,0.1,0,0.1,0.1,0.2S6.7,4,6.7,4h1.5c0.1,0,0.1,0,0.2-0.1
			S8.5,3.8,8.5,3.8z"/>
	</g>
</g>
<g id="question-mark-circle" class="st0">
	<g class="st2">
		<path d="M12.7,4c0.5,0.9,0.8,1.9,0.8,3c0,1.1-0.3,2.1-0.8,3c-0.5,0.9-1.3,1.6-2.2,2.2S8.6,13,7.5,13s-2.1-0.3-3-0.8
			S2.8,10.9,2.3,10C1.8,9.1,1.5,8.1,1.5,7c0-1.1,0.3-2.1,0.8-3c0.5-0.9,1.3-1.6,2.2-2.2C5.4,1.3,6.4,1,7.5,1s2.1,0.3,3,0.8
			C11.4,2.3,12.2,3.1,12.7,4z M10.5,5.5c0-0.5-0.1-0.9-0.4-1.3S9.4,3.5,9,3.3C8.6,3.1,8.1,3,7.7,3C6.4,3,5.4,3.6,4.8,4.7
			C4.7,4.8,4.7,4.9,4.8,5l1,0.8c0,0,0.1,0,0.1,0c0.1,0,0.1,0,0.2-0.1C6.5,5.4,6.7,5.1,6.9,5C7,4.9,7.3,4.8,7.5,4.8
			C7.8,4.8,8,4.9,8.2,5c0.2,0.1,0.3,0.3,0.3,0.5c0,0.2-0.1,0.4-0.2,0.5C8.2,6.1,8.1,6.2,7.8,6.3C7.5,6.5,7.2,6.7,6.9,7
			S6.5,7.6,6.5,8v0.3c0,0.1,0,0.1,0.1,0.2s0.1,0.1,0.2,0.1h1.5c0.1,0,0.1,0,0.2-0.1s0.1-0.1,0.1-0.2c0-0.1,0.1-0.2,0.2-0.4
			c0.1-0.2,0.3-0.3,0.4-0.4c0.2-0.1,0.3-0.2,0.4-0.2S9.7,7.1,9.8,7c0.2-0.1,0.3-0.3,0.3-0.4c0.1-0.1,0.2-0.3,0.2-0.5
			C10.5,5.9,10.5,5.7,10.5,5.5z M8.5,10.8V9.2c0-0.1,0-0.1-0.1-0.2S8.3,9,8.2,9H6.8C6.7,9,6.6,9,6.6,9.1S6.5,9.2,6.5,9.2v1.5
			c0,0.1,0,0.1,0.1,0.2S6.7,11,6.8,11h1.5c0.1,0,0.1,0,0.2-0.1S8.5,10.8,8.5,10.8z"/>
	</g>
</g>
<g id="search" class="st0">
	<g class="st2">
		<path d="M14,12.5c0,0.3-0.1,0.5-0.3,0.7s-0.4,0.3-0.7,0.3c-0.3,0-0.5-0.1-0.7-0.3l-2.7-2.7c-0.9,0.6-2,1-3.1,1
			c-0.7,0-1.5-0.1-2.1-0.4s-1.3-0.7-1.8-1.2S1.7,8.8,1.4,8.1S1,6.7,1,6c0-0.7,0.1-1.5,0.4-2.1s0.7-1.3,1.2-1.8s1.1-0.9,1.8-1.2
			s1.4-0.4,2.1-0.4S8,0.6,8.6,0.9s1.3,0.7,1.8,1.2s0.9,1.1,1.2,1.8S12,5.3,12,6c0,1.1-0.3,2.2-1,3.1l2.7,2.7
			C13.9,12,14,12.2,14,12.5z M9,8.5C9.7,7.8,10,7,10,6c0-1-0.3-1.8-1-2.5c-0.7-0.7-1.5-1-2.5-1S4.7,2.8,4,3.5C3.3,4.2,3,5,3,6
			c0,1,0.3,1.8,1,2.5c0.7,0.7,1.5,1,2.5,1S8.3,9.2,9,8.5z"/>
	</g>
</g>
<g id="cross" class="st0">
	<g class="st2">
		<path d="M12.1,9.8c0,0.2-0.1,0.4-0.2,0.5l-1.1,1.1c-0.1,0.1-0.3,0.2-0.5,0.2s-0.4-0.1-0.5-0.2L7.5,9.1l-2.3,2.3
			c-0.1,0.1-0.3,0.2-0.5,0.2s-0.4-0.1-0.5-0.2l-1.1-1.1C2.9,10.2,2.9,10,2.9,9.8c0-0.2,0.1-0.4,0.2-0.5L5.4,7L3.1,4.7
			C2.9,4.6,2.9,4.4,2.9,4.2c0-0.2,0.1-0.4,0.2-0.5l1.1-1.1c0.1-0.1,0.3-0.2,0.5-0.2s0.4,0.1,0.5,0.2l2.3,2.3l2.3-2.3
			c0.1-0.1,0.3-0.2,0.5-0.2s0.4,0.1,0.5,0.2l1.1,1.1c0.1,0.1,0.2,0.3,0.2,0.5c0,0.2-0.1,0.4-0.2,0.5L9.6,7l2.3,2.3
			C12.1,9.4,12.1,9.6,12.1,9.8z"/>
	</g>
</g>
<g id="trash" class="st0">
	<g class="st2">
		<path d="M13,3.2v0.5c0,0.1,0,0.1-0.1,0.2S12.8,4,12.8,4H12v7.4c0,0.4-0.1,0.8-0.4,1.1S11.1,13,10.8,13H4.2c-0.3,0-0.6-0.2-0.9-0.5
			S3,11.9,3,11.4V4H2.2C2.2,4,2.1,4,2.1,3.9S2,3.8,2,3.8V3.2c0-0.1,0-0.1,0.1-0.2S2.2,3,2.2,3h2.4l0.5-1.3c0.1-0.2,0.2-0.4,0.4-0.5
			C5.8,1.1,6,1,6.2,1h2.5C9,1,9.2,1.1,9.4,1.2c0.2,0.1,0.3,0.3,0.4,0.5L10.3,3h2.4c0.1,0,0.1,0,0.2,0.1S13,3.2,13,3.2z M11,11.4V4H4
			v7.4c0,0.1,0,0.2,0.1,0.3c0,0.1,0.1,0.2,0.1,0.2c0,0,0.1,0.1,0.1,0.1h6.5c0,0,0,0,0.1-0.1c0,0,0.1-0.1,0.1-0.2
			C11,11.6,11,11.5,11,11.4z M6,5.8v4.5c0,0.1,0,0.1-0.1,0.2s-0.1,0.1-0.2,0.1H5.2c-0.1,0-0.1,0-0.2-0.1S5,10.3,5,10.2V5.8
			c0-0.1,0-0.1,0.1-0.2s0.1-0.1,0.2-0.1h0.5c0.1,0,0.1,0,0.2,0.1S6,5.7,6,5.8z M5.8,3h3.5L8.9,2.1C8.8,2,8.8,2,8.7,2H6.3
			C6.2,2,6.2,2,6.1,2.1L5.8,3z M8,5.8v4.5c0,0.1,0,0.1-0.1,0.2s-0.1,0.1-0.2,0.1H7.2c-0.1,0-0.1,0-0.2-0.1S7,10.3,7,10.2V5.8
			c0-0.1,0-0.1,0.1-0.2s0.1-0.1,0.2-0.1h0.5c0.1,0,0.1,0,0.2,0.1S8,5.7,8,5.8z M10,5.8v4.5c0,0.1,0,0.1-0.1,0.2s-0.1,0.1-0.2,0.1
			H9.2c-0.1,0-0.1,0-0.2-0.1S9,10.3,9,10.2V5.8c0-0.1,0-0.1,0.1-0.2s0.1-0.1,0.2-0.1h0.5c0.1,0,0.1,0,0.2,0.1S10,5.7,10,5.8z"/>
	</g>
</g>
<g id="exclamation-mark-triangle" class="st0">
	<g class="st2">
		<path d="M8.4,1l6,11c0.2,0.3,0.2,0.7,0,1c-0.1,0.2-0.2,0.3-0.4,0.4s-0.3,0.1-0.5,0.1h-12c-0.2,0-0.3,0-0.5-0.1S0.7,13.2,0.6,13
			c-0.2-0.3-0.2-0.7,0-1l6-11C6.7,0.9,6.8,0.7,7,0.6s0.3-0.1,0.5-0.1s0.4,0,0.5,0.1C8.2,0.7,8.3,0.9,8.4,1z M8.5,8.3l0.1-3.6
			c0-0.1,0-0.1-0.1-0.1C8.5,4.5,8.4,4.5,8.4,4.5H6.6c-0.1,0-0.1,0-0.2,0.1c-0.1,0-0.1,0.1-0.1,0.2l0.1,3.6c0,0.1,0,0.1,0.1,0.1
			c0.1,0,0.1,0.1,0.2,0.1h1.4c0.1,0,0.1,0,0.2-0.1C8.5,8.4,8.5,8.4,8.5,8.3z M8.5,11.2V9.8c0-0.1,0-0.1-0.1-0.2c0,0-0.1-0.1-0.2-0.1
			H6.7c-0.1,0-0.1,0-0.2,0.1c0,0-0.1,0.1-0.1,0.2v1.5c0,0.1,0,0.1,0.1,0.2c0,0,0.1,0.1,0.2,0.1h1.5c0.1,0,0.1,0,0.2-0.1
			C8.5,11.4,8.5,11.3,8.5,11.2z"/>
	</g>
</g>
<g id="exclamation-mark-circle" class="st0">
	<g class="st2">
		<path d="M4.5,1.8C5.4,1.3,6.4,1,7.5,1s2.1,0.3,3,0.8c0.9,0.5,1.6,1.3,2.2,2.2c0.5,0.9,0.8,1.9,0.8,3c0,1.1-0.3,2.1-0.8,3
			c-0.5,0.9-1.3,1.6-2.2,2.2S8.6,13,7.5,13s-2.1-0.3-3-0.8S2.8,10.9,2.3,10C1.8,9.1,1.5,8.1,1.5,7c0-1.1,0.3-2.1,0.8-3
			C2.8,3.1,3.6,2.3,4.5,1.8z M8.5,8.1l0.1-4.9c0-0.1,0-0.1-0.1-0.1C8.5,3,8.4,3,8.4,3H6.6C6.6,3,6.5,3,6.5,3.1
			c-0.1,0-0.1,0.1-0.1,0.1l0.1,4.9c0,0.1,0,0.1,0.1,0.1s0.1,0.1,0.2,0.1h1.4c0.1,0,0.1,0,0.2-0.1S8.5,8.1,8.5,8.1z M8.5,10.7V9.3
			c0-0.1,0-0.1-0.1-0.2C8.4,9,8.3,9,8.3,9H6.8C6.7,9,6.6,9,6.6,9.1C6.5,9.1,6.5,9.2,6.5,9.3v1.5c0,0.1,0,0.1,0.1,0.2
			C6.6,11,6.7,11,6.8,11h1.5c0.1,0,0.1,0,0.2-0.1C8.5,10.9,8.5,10.8,8.5,10.7z"/>
	</g>
</g>
<g id="fire" class="st0">
	<g class="st2">
		<path d="M13,13.2v0.5c0,0.1,0,0.1-0.1,0.2S12.8,14,12.8,14H2.2c-0.1,0-0.1,0-0.2-0.1S2,13.8,2,13.8v-0.5c0-0.1,0-0.1,0.1-0.2
			S2.2,13,2.2,13h10.5c0.1,0,0.1,0,0.2,0.1S13,13.2,13,13.2z M11,5c0,0.4-0.1,0.8-0.2,1.1S10.5,6.8,10.3,7S9.9,7.5,9.6,7.7
			C9.4,7.9,9.1,8.1,8.9,8.3S8.4,8.7,8.2,8.9S7.8,9.3,7.7,9.5C7.6,9.7,7.5,10,7.5,10.2c0,0.5,0.2,1.1,0.5,1.8l0,0l0,0
			c-0.5-0.2-0.9-0.4-1.2-0.6S6,10.9,5.7,10.6c-0.4-0.3-0.7-0.6-0.9-1S4.4,8.9,4.2,8.4C4.1,8,4,7.5,4,7c0-0.4,0.1-0.8,0.2-1.1
			S4.5,5.2,4.7,5s0.4-0.5,0.7-0.7c0.2-0.2,0.5-0.4,0.8-0.6s0.5-0.4,0.7-0.6s0.4-0.4,0.5-0.6C7.4,2.3,7.5,2,7.5,1.8
			C7.5,1.3,7.3,0.7,7,0l0,0l0,0c0.5,0.2,0.9,0.4,1.2,0.6S9,1.1,9.3,1.4c0.4,0.3,0.7,0.6,0.9,1s0.4,0.7,0.6,1.2C10.9,4,11,4.5,11,5z"
			/>
	</g>
</g>
<g id="cart" class="st0">
	<g class="st2">
		<path d="M14,3v4c0,0.1,0,0.2-0.1,0.3c-0.1,0.1-0.2,0.2-0.3,0.2l-8.2,1C5.5,8.8,5.5,8.9,5.5,9c0,0.1-0.1,0.2-0.2,0.5h7.2
			c0.1,0,0.3,0,0.4,0.1C13,9.7,13,9.9,13,10c0,0.1,0,0.3-0.1,0.4c-0.1,0.1-0.2,0.1-0.4,0.1h-8c-0.1,0-0.3,0-0.4-0.1
			C4,10.3,4,10.1,4,10c0-0.1,0-0.1,0.1-0.2c0-0.1,0.1-0.2,0.1-0.3c0-0.1,0.1-0.2,0.2-0.3C4.4,9,4.5,9,4.5,8.9L3.1,2.5H1.5
			c-0.1,0-0.3,0-0.4-0.1C1,2.3,1,2.1,1,2c0-0.1,0-0.3,0.1-0.4c0.1-0.1,0.2-0.1,0.4-0.1h2c0.1,0,0.2,0,0.2,0.1c0.1,0,0.1,0.1,0.2,0.1
			S3.9,1.8,4,1.9C4,1.9,4,2,4,2.1s0,0.1,0,0.2c0,0.1,0,0.2,0,0.2h9.4c0.1,0,0.3,0,0.4,0.1C14,2.7,14,2.9,14,3z M5.7,10.8
			C5.9,11,6,11.2,6,11.5S5.9,12,5.7,12.2S5.3,12.5,5,12.5s-0.5-0.1-0.7-0.3S4,11.8,4,11.5s0.1-0.5,0.3-0.7c0.2-0.2,0.4-0.3,0.7-0.3
			S5.5,10.6,5.7,10.8z M12.7,10.8c0.2,0.2,0.3,0.4,0.3,0.7s-0.1,0.5-0.3,0.7s-0.4,0.3-0.7,0.3s-0.5-0.1-0.7-0.3S11,11.8,11,11.5
			s0.1-0.5,0.3-0.7c0.2-0.2,0.4-0.3,0.7-0.3S12.5,10.6,12.7,10.8z"/>
	</g>
</g>
<g id="youtube" class="st0">
	<g class="st2">
		<path d="M13.3,10c0,1.2-0.1,2.1-0.2,2.7c-0.1,0.3-0.2,0.6-0.5,0.8s-0.5,0.3-0.8,0.4c-1,0.1-2.4,0.2-4.3,0.2s-3.4-0.1-4.3-0.2
			c-0.3,0-0.6-0.2-0.8-0.4S2,13,1.9,12.7c-0.1-0.6-0.2-1.5-0.2-2.7c0-1.2,0.1-2.1,0.2-2.7C2,6.9,2.1,6.7,2.4,6.5
			c0.2-0.2,0.5-0.3,0.8-0.4c1-0.1,2.4-0.2,4.3-0.2s3.4,0.1,4.3,0.2c0.3,0,0.6,0.2,0.8,0.4c0.2,0.2,0.4,0.5,0.4,0.8
			C13.2,7.8,13.3,8.7,13.3,10z M4.2,8H5V7.3H2.6V8h0.8v4.4h0.8V8z M5.5,0h0.8L5.3,3.1v2.1H4.6V3.1C4.5,2.7,4.3,2.2,4.1,1.5
			C3.9,0.9,3.7,0.4,3.6,0h0.8L5,2.1L5.5,0z M6.4,12.5h0.7V8.6H6.4v3c-0.2,0.2-0.3,0.3-0.4,0.3c-0.1,0-0.1-0.1-0.2-0.2
			c0,0,0-0.1,0-0.3V8.6H5.1v3.1c0,0.3,0,0.4,0.1,0.6c0.1,0.2,0.2,0.3,0.5,0.3c0.2,0,0.5-0.2,0.8-0.5V12.5z M8.4,2.6V4
			c0,0.4-0.1,0.7-0.2,0.9C8,5.2,7.7,5.3,7.3,5.3C7,5.3,6.7,5.2,6.5,4.9C6.4,4.7,6.3,4.4,6.3,4V2.6c0-0.4,0.1-0.7,0.2-0.9
			C6.7,1.4,7,1.3,7.3,1.3c0.4,0,0.6,0.1,0.8,0.4C8.3,1.9,8.4,2.2,8.4,2.6z M7.7,4.1V2.5c0-0.4-0.1-0.5-0.3-0.5S7,2.1,7,2.5v1.6
			c0,0.4,0.1,0.5,0.3,0.5S7.7,4.5,7.7,4.1z M9.8,11.3V9.8c0-0.4,0-0.6-0.1-0.8C9.6,8.7,9.4,8.6,9.2,8.6C8.9,8.6,8.7,8.7,8.4,9V7.3
			H7.7v5.2h0.7v-0.4c0.2,0.3,0.5,0.4,0.7,0.4c0.3,0,0.5-0.1,0.6-0.4C9.8,12,9.8,11.7,9.8,11.3z M9.1,9.7v1.6c0,0.3-0.1,0.5-0.3,0.5
			c-0.1,0-0.2-0.1-0.4-0.2V9.4c0.1-0.1,0.2-0.2,0.4-0.2C9,9.2,9.1,9.4,9.1,9.7z M11,1.3v3.9h-0.7V4.8C10,5.1,9.7,5.3,9.5,5.3
			C9.2,5.3,9.1,5.2,9,5C9,4.9,9,4.7,9,4.4V1.3h0.7v2.9c0,0.2,0,0.3,0,0.3c0,0.1,0.1,0.2,0.2,0.2c0.1,0,0.3-0.1,0.4-0.3v-3H11z
			 M12.4,11.2v-0.1h-0.7c0,0.3,0,0.4,0,0.5c0,0.2-0.1,0.3-0.3,0.3c-0.2,0-0.4-0.2-0.4-0.5v-0.7h1.4V9.9c0-0.4-0.1-0.7-0.2-0.9
			c-0.2-0.3-0.5-0.4-0.8-0.4c-0.4,0-0.6,0.1-0.8,0.4c-0.1,0.2-0.2,0.5-0.2,0.9v1.4c0,0.4,0.1,0.7,0.2,0.9c0.2,0.3,0.5,0.4,0.8,0.4
			c0.4,0,0.7-0.1,0.8-0.4c0.1-0.1,0.1-0.3,0.2-0.4C12.4,11.6,12.4,11.5,12.4,11.2z M11.7,9.7v0.4H11V9.7c0-0.4,0.1-0.5,0.4-0.5
			S11.7,9.4,11.7,9.7z"/>
	</g>
</g>
<g id="facebook" class="st0">
	<g class="st2">
		<path d="M10.9,0.6v2.1H9.6c-0.4,0-0.8,0.1-0.9,0.3S8.5,3.4,8.5,3.8v1.5h2.3l-0.3,2.3h-2v5.9H6.1V7.6h-2V5.3h2V3.6
			c0-1,0.3-1.7,0.8-2.3c0.5-0.5,1.3-0.8,2.2-0.8C9.9,0.5,10.5,0.5,10.9,0.6z"/>
	</g>
</g>
<g id="gplus" class="st0">
	<g class="st2">
		<path d="M6.8,6.7c0,0.2,0.1,0.4,0.2,0.6s0.4,0.4,0.6,0.5C7.9,8,8.1,8.2,8.4,8.4C8.6,8.6,8.8,8.9,9,9.2c0.2,0.3,0.2,0.7,0.2,1.1
			c0,0.5-0.1,0.9-0.4,1.4c-0.4,0.6-0.9,1.1-1.6,1.4s-1.5,0.4-2.3,0.4c-0.7,0-1.3-0.1-1.9-0.3s-1-0.6-1.3-1.1c-0.2-0.3-0.3-0.7-0.3-1
			c0-0.4,0.1-0.8,0.3-1.2S2.2,9.2,2.6,9c0.7-0.4,1.7-0.7,3.2-0.8C5.6,8,5.5,7.8,5.4,7.6C5.3,7.5,5.3,7.3,5.3,7.1
			c0-0.2,0.1-0.4,0.2-0.7c-0.2,0-0.4,0-0.5,0c-0.8,0-1.4-0.3-1.9-0.8C2.4,5.2,2.1,4.6,2.1,3.8c0-0.4,0.1-0.8,0.3-1.2
			c0.2-0.4,0.4-0.7,0.8-1c0.4-0.3,0.9-0.6,1.4-0.8c0.5-0.2,1.1-0.2,1.7-0.2h3.3L8.5,1.2h-1c0.4,0.3,0.7,0.7,0.9,1
			C8.6,2.6,8.7,3,8.7,3.5c0,0.4-0.1,0.7-0.2,1C8.3,4.8,8.2,5,8,5.2C7.8,5.4,7.7,5.6,7.5,5.7C7.3,5.9,7.1,6,7,6.2
			C6.9,6.4,6.8,6.5,6.8,6.7z M5.7,12.8c0.3,0,0.6,0,0.9-0.1s0.5-0.2,0.8-0.3c0.2-0.1,0.4-0.3,0.6-0.6C8,11.6,8.1,11.3,8.1,11
			c0-0.1,0-0.3-0.1-0.4S8,10.3,7.9,10.2S7.8,10,7.7,9.9C7.6,9.8,7.6,9.7,7.5,9.7C7.5,9.6,7.4,9.5,7.2,9.4C7.1,9.3,7,9.2,6.9,9.2
			S6.8,9,6.6,8.9S6.3,8.7,6.3,8.7c-0.1,0-0.2,0-0.4,0c-0.3,0-0.5,0-0.8,0.1C4.8,8.8,4.6,8.9,4.3,9S3.7,9.2,3.5,9.3
			C3.3,9.5,3.1,9.7,3,9.9s-0.2,0.5-0.2,0.8c0,0.4,0.1,0.7,0.3,1c0.2,0.3,0.4,0.5,0.7,0.6c0.3,0.2,0.6,0.3,0.9,0.3S5.3,12.8,5.7,12.8
			z M5.7,6c0.2,0,0.4,0,0.6-0.1s0.4-0.2,0.5-0.3c0.3-0.3,0.4-0.7,0.4-1.2c0-0.3,0-0.6-0.1-1C7,2.9,6.9,2.6,6.7,2.3
			C6.5,1.9,6.3,1.7,6,1.5C5.8,1.2,5.5,1.1,5.1,1.1c-0.2,0-0.4,0.1-0.6,0.2S4.1,1.5,4,1.7C3.7,2,3.6,2.4,3.6,3c0,0.2,0,0.5,0.1,0.8
			C3.7,4,3.8,4.3,3.9,4.5C4,4.8,4.2,5,4.3,5.2c0.2,0.2,0.4,0.4,0.6,0.5C5.1,5.9,5.4,6,5.7,6z M12,5.9h1.7v0.8H12v1.7h-0.8V6.8H9.5
			V5.9h1.7V4.2H12V5.9z"/>
	</g>
</g>
<g id="twitter" class="st0">
	<g class="st2">
		<path d="M13.7,3.2c-0.3,0.5-0.8,0.9-1.3,1.3c0,0.1,0,0.2,0,0.3c0,0.7-0.1,1.4-0.3,2c-0.2,0.7-0.5,1.3-0.9,1.9
			c-0.4,0.6-0.9,1.2-1.4,1.6s-1.2,0.9-2,1.1C7,11.9,6.1,12,5.2,12c-1.4,0-2.7-0.4-3.9-1.1c0.2,0,0.4,0,0.6,0c1.2,0,2.2-0.4,3.1-1.1
			c-0.5,0-1-0.2-1.5-0.5C3.2,9,2.9,8.6,2.7,8.1c0.2,0,0.3,0,0.5,0c0.2,0,0.4,0,0.7-0.1C3.3,7.9,2.8,7.6,2.4,7.2s-0.6-1-0.6-1.6v0
			C2.2,5.7,2.6,5.8,3,5.8C2.6,5.6,2.4,5.3,2.2,4.9C2,4.6,1.9,4.2,1.9,3.7c0-0.5,0.1-0.9,0.3-1.3c0.6,0.8,1.4,1.4,2.3,1.9
			C5.4,4.8,6.4,5,7.4,5.1c0-0.2-0.1-0.4-0.1-0.6c0-0.7,0.2-1.3,0.7-1.8S9.2,2,9.9,2c0.7,0,1.3,0.3,1.8,0.8c0.6-0.1,1.1-0.3,1.6-0.6
			c-0.2,0.6-0.6,1.1-1.1,1.4C12.7,3.5,13.2,3.4,13.7,3.2z"/>
	</g>
</g>
<g id="instagram" class="st0">
	<g class="st2">
		<path d="M13.5,2.5v8.9c0,0.4-0.2,0.8-0.5,1.1S12.4,13,12,13H3c-0.4,0-0.8-0.2-1.1-0.5s-0.5-0.7-0.5-1.1V2.5c0-0.4,0.2-0.8,0.5-1.1
			C2.3,1.2,2.6,1,3,1H12c0.4,0,0.8,0.2,1.1,0.5C13.3,1.8,13.5,2.1,13.5,2.5z M12.1,11.1V6.1h-1.1c0.1,0.3,0.2,0.7,0.2,1
			c0,0.7-0.2,1.3-0.5,1.8s-0.8,1-1.4,1.3c-0.6,0.3-1.2,0.5-1.9,0.5c-1,0-1.9-0.4-2.6-1.1C4.1,9,3.8,8.1,3.8,7.1c0-0.4,0.1-0.7,0.2-1
			H2.8v5.1c0,0.1,0,0.2,0.1,0.3c0.1,0.1,0.2,0.1,0.3,0.1h8.4c0.1,0,0.2,0,0.3-0.1C12.1,11.4,12.1,11.3,12.1,11.1z M9.2,8.6
			c0.5-0.5,0.7-1,0.7-1.7c0-0.6-0.2-1.2-0.7-1.7c-0.5-0.5-1-0.7-1.7-0.7c-0.7,0-1.2,0.2-1.7,0.7C5.3,5.8,5.1,6.3,5.1,7
			c0,0.6,0.2,1.2,0.7,1.7c0.5,0.5,1,0.7,1.7,0.7C8.2,9.3,8.7,9.1,9.2,8.6z M12.1,4.2V2.9c0-0.1-0.1-0.3-0.2-0.4
			c-0.1-0.1-0.2-0.2-0.4-0.2h-1.4c-0.2,0-0.3,0.1-0.4,0.2C9.8,2.6,9.7,2.7,9.7,2.9v1.3c0,0.2,0.1,0.3,0.2,0.4
			c0.1,0.1,0.2,0.2,0.4,0.2h1.4c0.2,0,0.3-0.1,0.4-0.2C12.1,4.4,12.1,4.3,12.1,4.2z"/>
	</g>
</g>
<g id="shipping" class="st0">
	<g class="st2">
		<path d="M4.7,9C4,9,3.4,9.6,3.4,10.3c0,0.7,0.6,1.3,1.3,1.3S6,11.1,6,10.3C6,9.6,5.4,9,4.7,9z M4.7,10.9c-0.3,0-0.6-0.3-0.6-0.6
			c0-0.3,0.3-0.6,0.6-0.6s0.6,0.3,0.6,0.6C5.3,10.6,5,10.9,4.7,10.9z"/>
		<path d="M11.7,9c-0.7,0-1.3,0.6-1.3,1.3c0,0.7,0.6,1.3,1.3,1.3c0.7,0,1.3-0.6,1.3-1.3C13,9.6,12.4,9,11.7,9z M11.7,10.9
			c-0.3,0-0.6-0.3-0.6-0.6c0-0.3,0.3-0.6,0.6-0.6s0.6,0.3,0.6,0.6C12.2,10.6,12,10.9,11.7,10.9z"/>
		<path d="M1.2,5.3h4.6C6,5.3,6.2,5.1,6.2,5V4.7c0-0.2-0.2-0.3-0.3-0.3H1.2C1,4.4,0.9,4.6,0.9,4.7V5C0.9,5.1,1,5.3,1.2,5.3z"/>
		<path d="M14.2,6.9c-0.5-0.1-0.8-0.2-1-0.6l-0.6-1.3c-0.2-0.4-0.7-0.7-1.1-0.7h-0.9c0,0-0.1,0-0.1-0.1c0-0.3,0-1.1,0-1.1
			c0-0.4-0.2-0.8-0.7-0.8H2.7C2,2.4,1.7,2.8,1.7,3.2v0.7c0,0,0,0.2,0.2,0.2c1,0,4,0,4,0c0.4,0,0.7,0.3,0.7,0.7V5
			c0,0.4-0.3,0.7-0.7,0.7h-4c0,0-0.2,0-0.2,0.2c0,0.1,0,0.2,0,0.2c0,0.2,0.3,0.2,0.3,0.2h2.7c0.4,0,0.7,0.3,0.7,0.7v0.2
			c0,0.4-0.3,0.7-0.7,0.7H2c0,0-0.3,0-0.3,0.2c0,0.4,0,1.6,0,1.6c0,0.4,0.3,0.8,0.8,0.8c0,0,0.3,0,0.4,0C3,10.4,3,10.4,3,10.3
			c0-0.9,0.8-1.7,1.7-1.7s1.7,0.8,1.7,1.7c0,0,0,0.1,0.1,0.1c0.8,0,3.4,0,3.4,0c0.1,0,0.1-0.1,0.1-0.1c0-0.9,0.8-1.7,1.7-1.7
			c0.9,0,1.7,0.8,1.7,1.7c0,0,0,0.1,0,0.1c0.4,0,0.9,0,0.9,0c0.4,0,0.8-0.3,0.8-0.8V8.2C15,7,14.6,7,14.2,6.9z M12.8,6.9
			c0,0-1.6,0-2.1,0c-0.1,0-0.1-0.1-0.1-0.1V5c0,0,0-0.1,0.1-0.1c0.2,0,0.6,0,0.6,0c0.4,0,0.8,0.3,1,0.6l0.6,1.1
			C12.9,6.7,12.9,6.7,12.8,6.9C12.9,6.8,12.9,6.9,12.8,6.9z"/>
		<path d="M4.9,7.1V6.9c0-0.2-0.2-0.3-0.3-0.3H0.3C0.1,6.6,0,6.7,0,6.9v0.2c0,0.2,0.2,0.3,0.3,0.3h4.3C4.8,7.4,4.9,7.3,4.9,7.1z"/>
	</g>
</g>
<g id="shop" class="st0">
	<g class="st2">
		<path d="M0,4.9c0,0.9,0.6,1.6,1.4,1.8v6.2H0.5c-0.3,0-0.5,0.2-0.5,0.5c0,0.3,0.2,0.5,0.5,0.5h14.1c0.3,0,0.5-0.2,0.5-0.5
			c0-0.3-0.2-0.5-0.5-0.5h-0.9V6.7C14.4,6.5,15,5.8,15,4.9V4.4H0V4.9z M2.4,6.7c0.8-0.2,1.4-0.9,1.4-1.8c0,0.9,0.8,1.9,2.1,1.9
			c1-0.1,1.7-0.9,1.7-1.9c0,1,0.8,1.9,1.9,1.9c1,0,1.9-0.8,1.9-1.9c0,0.9,0.6,1.6,1.4,1.8v6.2h-7H2.4V6.7z"/>
		<path d="M13.1,0.2H1.9L0,4h15L13.1,0.2z M4,1.2L3,3.1c0,0.1-0.1,0.1-0.2,0.1c0,0-0.1,0-0.1,0C2.6,3.2,2.6,3,2.6,2.9L3.6,1
			c0.1-0.1,0.2-0.2,0.3-0.1C4,1,4,1.1,4,1.2z M5.8,1.2L4.9,3.1c0,0.1-0.1,0.1-0.2,0.1c0,0-0.1,0-0.1,0C4.5,3.2,4.4,3,4.5,2.9L5.4,1
			c0.1-0.1,0.2-0.2,0.3-0.1C5.9,1,5.9,1.1,5.8,1.2z M7.7,3c0,0.1-0.1,0.2-0.2,0.2C7.4,3.2,7.3,3.1,7.3,3V1.1c0-0.1,0.1-0.2,0.2-0.2
			c0.1,0,0.2,0.1,0.2,0.2V3z M10.4,3.2c0,0-0.1,0-0.1,0c-0.1,0-0.2,0-0.2-0.1l-1-1.9C9,1.1,9.1,1,9.2,0.9c0.1-0.1,0.3,0,0.3,0.1
			l1,1.9C10.6,3,10.5,3.2,10.4,3.2z M12.3,3.2c0,0-0.1,0-0.1,0c-0.1,0-0.2,0-0.2-0.1l-0.9-1.9C11,1.1,11,1,11.2,0.9
			c0.1-0.1,0.3,0,0.3,0.1l0.9,1.9C12.5,3,12.4,3.2,12.3,3.2z"/>
		<path d="M7.3,11.8c1.1,0,1.6-0.7,1.8-1.4c0.1-0.3,0.1-0.6,0.1-0.9H7.5v0.8H8c-0.1,0.2-0.3,0.3-0.7,0.3c-0.6,0-0.8-0.5-0.8-0.9
			c0-0.5,0.3-0.9,0.8-0.9c0.3,0,0.5,0.2,0.7,0.4l1.1-0.2C9,8.2,8.5,7.5,7.3,7.5c-1.3,0-1.9,1-1.9,2.2C5.4,10.6,5.9,11.8,7.3,11.8z"
			/>
	</g>
</g>
<g id="bank" class="st0">
	<g class="st2">
		<path d="M7.5,0L15,3v1h-1c0,0.1-0.1,0.3-0.2,0.4c-0.1,0.1-0.2,0.1-0.4,0.1H1.5c-0.1,0-0.3,0-0.4-0.1C1.1,4.3,1,4.1,1,4H0V3L7.5,0z
			 M14.5,12.5c0.1,0,0.3,0,0.4,0.1S15,12.9,15,13v1H0v-1c0-0.1,0.1-0.3,0.2-0.4s0.2-0.1,0.4-0.1H14.5z M2,5h2v6h1V5h2v6h1V5h2v6h1V5
			h2v6h0.5c0.1,0,0.3,0,0.4,0.1c0.1,0.1,0.2,0.2,0.2,0.4V12H1v-0.5c0-0.1,0.1-0.3,0.2-0.4C1.3,11,1.4,11,1.5,11H2V5z"/>
	</g>
</g>
<g id="checkmark" class="st0">
	<g class="st2">
		<path d="M13.6,4.2c0,0.2-0.1,0.4-0.2,0.5l-5.7,5.7l-1.1,1.1c-0.1,0.1-0.3,0.2-0.5,0.2s-0.4-0.1-0.5-0.2l-1.1-1.1L1.7,7.5
			C1.5,7.4,1.4,7.2,1.4,7c0-0.2,0.1-0.4,0.2-0.5l1.1-1.1C2.9,5.3,3,5.2,3.3,5.2s0.4,0.1,0.5,0.2l2.3,2.3l5.1-5.1
			c0.1-0.1,0.3-0.2,0.5-0.2s0.4,0.1,0.5,0.2l1.1,1.1C13.5,3.8,13.6,4,13.6,4.2z"/>
	</g>
</g>
<g id="checkmark-border-circle" class="st0">
	<g class="st2">
		<path d="M12.7,4c0.5,0.9,0.8,1.9,0.8,3c0,1.1-0.3,2.1-0.8,3c-0.5,0.9-1.3,1.6-2.2,2.2S8.6,13,7.5,13s-2.1-0.3-3-0.8
			S2.8,10.9,2.3,10C1.8,9.1,1.5,8.1,1.5,7c0-1.1,0.3-2.1,0.8-3c0.5-0.9,1.3-1.6,2.2-2.2C5.4,1.3,6.4,1,7.5,1s2.1,0.3,3,0.8
			C11.4,2.3,12.2,3.1,12.7,4z M11.2,9.1c0.4-0.7,0.6-1.4,0.6-2.1c0-0.8-0.2-1.5-0.6-2.1c-0.4-0.7-0.9-1.2-1.5-1.5
			C9,2.9,8.3,2.8,7.5,2.8S6,2.9,5.4,3.3C4.7,3.7,4.2,4.2,3.8,4.9C3.4,5.5,3.2,6.2,3.2,7c0,0.8,0.2,1.5,0.6,2.1
			c0.4,0.7,0.9,1.2,1.5,1.5c0.7,0.4,1.4,0.6,2.1,0.6s1.5-0.2,2.1-0.6C10.3,10.3,10.8,9.8,11.2,9.1z M10.6,6.4L7.4,9.6
			C7.3,9.7,7.1,9.8,7,9.8s-0.3,0-0.4-0.1L4.4,7.4C4.3,7.3,4.2,7.1,4.2,7c0-0.1,0-0.3,0.1-0.4l0.8-0.8c0.1-0.1,0.2-0.1,0.4-0.1
			s0.3,0,0.4,0.1L7,7l2.1-2.1c0.1-0.1,0.2-0.1,0.4-0.1s0.3,0,0.4,0.1l0.8,0.8c0.1,0.1,0.1,0.2,0.1,0.4C10.8,6.1,10.7,6.3,10.6,6.4z"
			/>
	</g>
</g>
<g id="checkmark-filled-circle" class="st0">
	<path class="st2" d="M12.7,4c-0.5-0.9-1.3-1.6-2.2-2.2C9.6,1.3,8.6,1,7.5,1s-2.1,0.3-3,0.8C3.6,2.3,2.8,3.1,2.3,4
		C1.8,4.9,1.5,5.9,1.5,7c0,1.1,0.3,2.1,0.8,3c0.5,0.9,1.3,1.6,2.2,2.2s1.9,0.8,3,0.8s2.1-0.3,3-0.8s1.6-1.3,2.2-2.2
		c0.5-0.9,0.8-1.9,0.8-3C13.5,5.9,13.2,4.9,12.7,4z M11.4,6.1l-4.2,4.2c-0.1,0.1-0.2,0.1-0.4,0.1c-0.1,0-0.3,0-0.4-0.1L3.6,7.5
		C3.5,7.4,3.5,7.3,3.5,7.1c0-0.1,0-0.3,0.1-0.4l0.7-0.7C4.4,6,4.5,5.9,4.7,5.9S4.9,6,5,6.1l1.8,1.8L10,4.7c0.1-0.1,0.2-0.1,0.4-0.1
		s0.3,0,0.4,0.1l0.7,0.7c0.1,0.1,0.1,0.2,0.1,0.4C11.5,5.9,11.5,6,11.4,6.1z"/>
</g>
<g id="list-view" class="st0">
	<g class="st2">
		<path d="M3.8,5.5H1.2C1,5.5,0.9,5.6,0.7,5.7C0.6,5.9,0.5,6,0.5,6.2v1.5c0,0.2,0.1,0.4,0.2,0.5C0.9,8.4,1,8.5,1.2,8.5h2.5
			c0.2,0,0.4-0.1,0.5-0.2C4.4,8.1,4.5,8,4.5,7.8V6.2c0-0.2-0.1-0.4-0.2-0.5C4.1,5.6,4,5.5,3.8,5.5z"/>
		<path d="M3.8,1.5H1.2C1,1.5,0.9,1.6,0.7,1.7C0.6,1.9,0.5,2,0.5,2.2v1.5c0,0.2,0.1,0.4,0.2,0.5C0.9,4.4,1,4.5,1.2,4.5h2.5
			c0.2,0,0.4-0.1,0.5-0.2C4.4,4.1,4.5,4,4.5,3.8V2.2c0-0.2-0.1-0.4-0.2-0.5C4.1,1.6,4,1.5,3.8,1.5z"/>
		<path d="M3.8,9.5H1.2C1,9.5,0.9,9.6,0.7,9.7C0.6,9.9,0.5,10,0.5,10.2v1.5c0,0.2,0.1,0.4,0.2,0.5c0.1,0.1,0.3,0.2,0.5,0.2h2.5
			c0.2,0,0.4-0.1,0.5-0.2c0.1-0.1,0.2-0.3,0.2-0.5v-1.5c0-0.2-0.1-0.4-0.2-0.5C4.1,9.6,4,9.5,3.8,9.5z"/>
		<path d="M14.3,1.7c-0.1-0.1-0.3-0.2-0.5-0.2H6.2C6,1.5,5.9,1.6,5.7,1.7C5.6,1.9,5.5,2,5.5,2.2v1.5c0,0.2,0.1,0.4,0.2,0.5
			C5.9,4.4,6,4.5,6.2,4.5h7.5c0.2,0,0.4-0.1,0.5-0.2c0.1-0.1,0.2-0.3,0.2-0.5V2.2C14.5,2,14.4,1.9,14.3,1.7z"/>
		<path d="M13.8,9.5H6.2C6,9.5,5.9,9.6,5.7,9.7C5.6,9.9,5.5,10,5.5,10.2v1.5c0,0.2,0.1,0.4,0.2,0.5c0.1,0.1,0.3,0.2,0.5,0.2h7.5
			c0.2,0,0.4-0.1,0.5-0.2c0.1-0.1,0.2-0.3,0.2-0.5v-1.5c0-0.2-0.1-0.4-0.2-0.5C14.1,9.6,14,9.5,13.8,9.5z"/>
		<path d="M13.8,5.5H6.2C6,5.5,5.9,5.6,5.7,5.7C5.6,5.9,5.5,6,5.5,6.2v1.5c0,0.2,0.1,0.4,0.2,0.5C5.9,8.4,6,8.5,6.2,8.5h7.5
			c0.2,0,0.4-0.1,0.5-0.2c0.1-0.1,0.2-0.3,0.2-0.5V6.2c0-0.2-0.1-0.4-0.2-0.5C14.1,5.6,14,5.5,13.8,5.5z"/>
	</g>
</g>
<g id="gallery-view" class="st0">
	<g class="st2">
		<path d="M4.5,2.2v1.5c0,0.2-0.1,0.4-0.2,0.5C4.1,4.4,4,4.5,3.8,4.5H1.2C1,4.5,0.9,4.4,0.7,4.3C0.6,4.1,0.5,4,0.5,3.8V2.2
			c0-0.2,0.1-0.4,0.2-0.5C0.9,1.6,1,1.5,1.2,1.5h2.5c0.2,0,0.4,0.1,0.5,0.2C4.4,1.9,4.5,2,4.5,2.2z M4.5,6.2v1.5
			c0,0.2-0.1,0.4-0.2,0.5C4.1,8.4,4,8.5,3.8,8.5H1.2C1,8.5,0.9,8.4,0.7,8.3C0.6,8.1,0.5,8,0.5,7.8V6.2c0-0.2,0.1-0.4,0.2-0.5
			C0.9,5.6,1,5.5,1.2,5.5h2.5c0.2,0,0.4,0.1,0.5,0.2C4.4,5.9,4.5,6,4.5,6.2z M4.5,10.2v1.5c0,0.2-0.1,0.4-0.2,0.5
			c-0.1,0.1-0.3,0.2-0.5,0.2H1.2c-0.2,0-0.4-0.1-0.5-0.2c-0.1-0.1-0.2-0.3-0.2-0.5v-1.5c0-0.2,0.1-0.4,0.2-0.5
			C0.9,9.6,1,9.5,1.2,9.5h2.5c0.2,0,0.4,0.1,0.5,0.2C4.4,9.9,4.5,10,4.5,10.2z M9.5,2.2v1.5c0,0.2-0.1,0.4-0.2,0.5
			C9.1,4.4,9,4.5,8.8,4.5H6.2C6,4.5,5.9,4.4,5.7,4.3C5.6,4.1,5.5,4,5.5,3.8V2.2c0-0.2,0.1-0.4,0.2-0.5C5.9,1.6,6,1.5,6.2,1.5h2.5
			c0.2,0,0.4,0.1,0.5,0.2C9.4,1.9,9.5,2,9.5,2.2z M9.5,6.2v1.5c0,0.2-0.1,0.4-0.2,0.5C9.1,8.4,9,8.5,8.8,8.5H6.2
			C6,8.5,5.9,8.4,5.7,8.3C5.6,8.1,5.5,8,5.5,7.8V6.2c0-0.2,0.1-0.4,0.2-0.5C5.9,5.6,6,5.5,6.2,5.5h2.5c0.2,0,0.4,0.1,0.5,0.2
			C9.4,5.9,9.5,6,9.5,6.2z M9.5,10.2v1.5c0,0.2-0.1,0.4-0.2,0.5c-0.1,0.1-0.3,0.2-0.5,0.2H6.2c-0.2,0-0.4-0.1-0.5-0.2
			c-0.1-0.1-0.2-0.3-0.2-0.5v-1.5c0-0.2,0.1-0.4,0.2-0.5C5.9,9.6,6,9.5,6.2,9.5h2.5c0.2,0,0.4,0.1,0.5,0.2C9.4,9.9,9.5,10,9.5,10.2z
			 M14.5,2.2v1.5c0,0.2-0.1,0.4-0.2,0.5c-0.1,0.1-0.3,0.2-0.5,0.2h-2.5c-0.2,0-0.4-0.1-0.5-0.2c-0.1-0.1-0.2-0.3-0.2-0.5V2.2
			c0-0.2,0.1-0.4,0.2-0.5c0.1-0.1,0.3-0.2,0.5-0.2h2.5c0.2,0,0.4,0.1,0.5,0.2C14.4,1.9,14.5,2,14.5,2.2z M14.5,6.2v1.5
			c0,0.2-0.1,0.4-0.2,0.5c-0.1,0.1-0.3,0.2-0.5,0.2h-2.5c-0.2,0-0.4-0.1-0.5-0.2c-0.1-0.1-0.2-0.3-0.2-0.5V6.2
			c0-0.2,0.1-0.4,0.2-0.5c0.1-0.1,0.3-0.2,0.5-0.2h2.5c0.2,0,0.4,0.1,0.5,0.2C14.4,5.9,14.5,6,14.5,6.2z M14.5,10.2v1.5
			c0,0.2-0.1,0.4-0.2,0.5c-0.1,0.1-0.3,0.2-0.5,0.2h-2.5c-0.2,0-0.4-0.1-0.5-0.2c-0.1-0.1-0.2-0.3-0.2-0.5v-1.5
			c0-0.2,0.1-0.4,0.2-0.5c0.1-0.1,0.3-0.2,0.5-0.2h2.5c0.2,0,0.4,0.1,0.5,0.2C14.4,9.9,14.5,10,14.5,10.2z"/>
	</g>
</g>
<g id="filled-arrow-bottom" class="st0">
	<g class="st2">
		<path d="M11.4,4.9c0.1,0.1,0.1,0.2,0.1,0.4c0,0.1,0,0.3-0.1,0.4L7.9,9.1C7.8,9.2,7.6,9.2,7.5,9.2s-0.3,0-0.4-0.1L3.6,5.6
			C3.5,5.5,3.5,5.4,3.5,5.2c0-0.1,0-0.3,0.1-0.4C3.7,4.8,3.9,4.8,4,4.8h7C11.1,4.8,11.3,4.8,11.4,4.9z"/>
	</g>
</g>
<g id="filled-arrow-top" class="st0">
	<g class="st2">
		<path d="M11.5,8.8c0,0.1,0,0.3-0.1,0.4c-0.1,0.1-0.2,0.1-0.4,0.1H4c-0.1,0-0.3,0-0.4-0.1C3.5,9,3.5,8.9,3.5,8.8
			c0-0.1,0-0.3,0.1-0.4l3.5-3.5c0.1-0.1,0.2-0.1,0.4-0.1s0.3,0,0.4,0.1l3.5,3.5C11.5,8.5,11.5,8.6,11.5,8.8z"/>
	</g>
</g>
<g id="filled-arrow-right" class="st0">
	<g class="st2">
		<path d="M9.8,7c0,0.1,0,0.3-0.1,0.4l-3.5,3.5C6,11,5.9,11,5.8,11s-0.3,0-0.4-0.1c-0.1-0.1-0.1-0.2-0.1-0.4v-7c0-0.1,0-0.3,0.1-0.4
			C5.5,3,5.6,3,5.8,3S6,3,6.1,3.1l3.5,3.5C9.7,6.7,9.8,6.9,9.8,7z"/>
	</g>
</g>
<g id="filled-arrow-left" class="st0">
	<g class="st2">
		<path d="M9.8,3.5v7c0,0.1,0,0.3-0.1,0.4C9.5,11,9.4,11,9.2,11S9,11,8.9,10.9L5.4,7.4C5.3,7.3,5.2,7.1,5.2,7c0-0.1,0-0.3,0.1-0.4
			l3.5-3.5C9,3,9.1,3,9.2,3s0.3,0,0.4,0.1C9.7,3.2,9.8,3.4,9.8,3.5z"/>
	</g>
</g>
<g id="double-thin-arrow-botom" class="st0">
	<g class="st2">
		<path d="M11.4,3.9c0,0.1,0,0.1-0.1,0.2L7.7,7.7C7.6,7.7,7.6,7.8,7.5,7.8s-0.1,0-0.2-0.1L3.7,4.1C3.6,4,3.6,3.9,3.6,3.9
			c0-0.1,0-0.1,0.1-0.2l0.4-0.4c0.1-0.1,0.1-0.1,0.2-0.1s0.1,0,0.2,0.1l3.1,3.1l3.1-3.1c0.1-0.1,0.1-0.1,0.2-0.1s0.1,0,0.2,0.1
			l0.4,0.4C11.4,3.7,11.4,3.8,11.4,3.9z M11.4,6.9c0,0.1,0,0.1-0.1,0.2l-3.6,3.6c-0.1,0.1-0.1,0.1-0.2,0.1s-0.1,0-0.2-0.1L3.7,7.1
			C3.6,7,3.6,6.9,3.6,6.9c0-0.1,0-0.1,0.1-0.2l0.4-0.4c0.1-0.1,0.1-0.1,0.2-0.1s0.1,0,0.2,0.1l3.1,3.1l3.1-3.1
			c0.1-0.1,0.1-0.1,0.2-0.1s0.1,0,0.2,0.1l0.4,0.4C11.4,6.7,11.4,6.8,11.4,6.9z"/>
	</g>
</g>
<g id="double-thin-arrow-left" class="st0">
	<g class="st2">
		<path d="M8.3,10.2c0,0.1,0,0.1-0.1,0.2l-0.4,0.4c-0.1,0.1-0.1,0.1-0.2,0.1s-0.1,0-0.2-0.1L3.8,7.2C3.8,7.1,3.7,7.1,3.7,7
			c0-0.1,0-0.1,0.1-0.2l3.6-3.6c0.1-0.1,0.1-0.1,0.2-0.1s0.1,0,0.2,0.1l0.4,0.4c0.1,0.1,0.1,0.1,0.1,0.2c0,0.1,0,0.1-0.1,0.2L5.1,7
			l3.1,3.1C8.2,10.1,8.3,10.2,8.3,10.2z M11.3,10.2c0,0.1,0,0.1-0.1,0.2l-0.4,0.4c-0.1,0.1-0.1,0.1-0.2,0.1s-0.1,0-0.2-0.1L6.8,7.2
			C6.8,7.1,6.7,7.1,6.7,7c0-0.1,0-0.1,0.1-0.2l3.6-3.6c0.1-0.1,0.1-0.1,0.2-0.1s0.1,0,0.2,0.1l0.4,0.4c0.1,0.1,0.1,0.1,0.1,0.2
			c0,0.1,0,0.1-0.1,0.2L8.1,7l3.1,3.1C11.2,10.1,11.3,10.2,11.3,10.2z"/>
	</g>
</g>
<g id="double-thin-arrow-right" class="st0">
	<g class="st2">
		<path d="M8.3,7c0,0.1,0,0.1-0.1,0.2l-3.6,3.6c-0.1,0.1-0.1,0.1-0.2,0.1s-0.1,0-0.2-0.1l-0.4-0.4c-0.1-0.1-0.1-0.1-0.1-0.2
			c0-0.1,0-0.1,0.1-0.2L6.9,7L3.8,3.9C3.8,3.9,3.7,3.8,3.7,3.8c0-0.1,0-0.1,0.1-0.2l0.4-0.4c0.1-0.1,0.1-0.1,0.2-0.1s0.1,0,0.2,0.1
			l3.6,3.6C8.2,6.9,8.3,6.9,8.3,7z M11.3,7c0,0.1,0,0.1-0.1,0.2l-3.6,3.6c-0.1,0.1-0.1,0.1-0.2,0.1s-0.1,0-0.2-0.1l-0.4-0.4
			c-0.1-0.1-0.1-0.1-0.1-0.2c0-0.1,0-0.1,0.1-0.2L9.9,7L6.8,3.9C6.8,3.9,6.7,3.8,6.7,3.8c0-0.1,0-0.1,0.1-0.2l0.4-0.4
			c0.1-0.1,0.1-0.1,0.2-0.1s0.1,0,0.2,0.1l3.6,3.6C11.2,6.9,11.3,6.9,11.3,7z"/>
	</g>
</g>
<g id="double-thin-arrow-top" class="st0">
	<g class="st2">
		<path d="M11.4,7.1c0,0.1,0,0.1-0.1,0.2l-0.4,0.4c-0.1,0.1-0.1,0.1-0.2,0.1s-0.1,0-0.2-0.1L7.5,4.6L4.4,7.7
			C4.4,7.7,4.3,7.8,4.2,7.8s-0.1,0-0.2-0.1L3.7,7.3C3.6,7.3,3.6,7.2,3.6,7.1c0-0.1,0-0.1,0.1-0.2l3.6-3.6c0.1-0.1,0.1-0.1,0.2-0.1
			s0.1,0,0.2,0.1l3.6,3.6C11.4,7,11.4,7.1,11.4,7.1z M11.4,10.1c0,0.1,0,0.1-0.1,0.2l-0.4,0.4c-0.1,0.1-0.1,0.1-0.2,0.1
			s-0.1,0-0.2-0.1L7.5,7.6l-3.1,3.1c-0.1,0.1-0.1,0.1-0.2,0.1s-0.1,0-0.2-0.1l-0.4-0.4c-0.1-0.1-0.1-0.1-0.1-0.2
			c0-0.1,0-0.1,0.1-0.2l3.6-3.6c0.1-0.1,0.1-0.1,0.2-0.1s0.1,0,0.2,0.1l3.6,3.6C11.4,10,11.4,10.1,11.4,10.1z"/>
	</g>
</g>
<g id="simple-bold-arrow-top" class="st0">
	<g class="st2">
		<path d="M13.6,9.6l-1.3,1.3C12.3,11,12.1,11,12,11s-0.3,0-0.4-0.1L7.5,6.7l-4.1,4.1C3.3,11,3.1,11,3,11s-0.3,0-0.4-0.1L1.4,9.6
			C1.3,9.5,1.2,9.4,1.2,9.2c0-0.1,0-0.3,0.1-0.4l5.8-5.8C7.2,3,7.4,3,7.5,3s0.3,0,0.4,0.1l5.8,5.8c0.1,0.1,0.1,0.2,0.1,0.4
			C13.8,9.4,13.7,9.5,13.6,9.6z"/>
	</g>
</g>
<g id="simple-bold-arrow-bottom" class="st0">
	<g class="st2">
		<path d="M13.6,5.1l-5.8,5.8C7.8,11,7.6,11,7.5,11s-0.3,0-0.4-0.1L1.4,5.1C1.3,5,1.2,4.9,1.2,4.8c0-0.1,0-0.3,0.1-0.4l1.3-1.3
			C2.7,3,2.9,3,3,3s0.3,0,0.4,0.1l4.1,4.1l4.1-4.1C11.7,3,11.9,3,12,3s0.3,0,0.4,0.1l1.3,1.3c0.1,0.1,0.1,0.2,0.1,0.4
			C13.8,4.9,13.7,5,13.6,5.1z"/>
	</g>
</g>
<g id="simple-bold-arrow-left" class="st0">
	<g class="st2">
		<path d="M11.4,2.9L7.2,7l4.1,4.1c0.1,0.1,0.1,0.2,0.1,0.4c0,0.1,0,0.3-0.1,0.4l-1.3,1.3c-0.1,0.1-0.2,0.1-0.4,0.1s-0.3,0-0.4-0.1
			L3.6,7.4C3.5,7.3,3.5,7.1,3.5,7c0-0.1,0-0.3,0.1-0.4l5.8-5.8c0.1-0.1,0.2-0.1,0.4-0.1s0.3,0,0.4,0.1l1.3,1.3
			c0.1,0.1,0.1,0.2,0.1,0.4C11.5,2.6,11.5,2.8,11.4,2.9z"/>
	</g>
</g>
<g id="simple-bold-arrow-right" class="st0">
	<g class="st2">
		<path d="M11.4,7.4l-5.8,5.8c-0.1,0.1-0.2,0.1-0.4,0.1s-0.3,0-0.4-0.1l-1.3-1.3c-0.1-0.1-0.1-0.2-0.1-0.4c0-0.1,0-0.3,0.1-0.4
			L7.8,7L3.6,2.9C3.5,2.8,3.5,2.6,3.5,2.5c0-0.1,0-0.3,0.1-0.4l1.3-1.3C5,0.8,5.1,0.7,5.2,0.7s0.3,0,0.4,0.1l5.8,5.8
			c0.1,0.1,0.1,0.2,0.1,0.4C11.5,7.1,11.5,7.3,11.4,7.4z"/>
	</g>
</g>
<g id="simple-thin-arrow-right" class="st0">
	<g class="st2">
		<path d="M9.8,7c0,0.1,0,0.1-0.1,0.2l-3.6,3.6c-0.1,0.1-0.1,0.1-0.2,0.1s-0.1,0-0.2-0.1l-0.4-0.4c-0.1-0.1-0.1-0.1-0.1-0.2
			s0-0.1,0.1-0.2L8.4,7L5.3,3.9C5.3,3.9,5.2,3.8,5.2,3.7c0-0.1,0-0.1,0.1-0.2l0.4-0.4c0.1-0.1,0.1-0.1,0.2-0.1s0.1,0,0.2,0.1
			l3.6,3.6C9.7,6.9,9.8,6.9,9.8,7z"/>
	</g>
</g>
<g id="simple-thin-arrow-top" class="st0">
	<g class="st2">
		<path d="M11.4,8.6c0,0.1,0,0.1-0.1,0.2l-0.4,0.4c-0.1,0.1-0.1,0.1-0.2,0.1s-0.1,0-0.2-0.1L7.5,6.1L4.4,9.2
			C4.4,9.2,4.3,9.3,4.2,9.3s-0.1,0-0.2-0.1L3.7,8.8C3.6,8.8,3.6,8.7,3.6,8.6c0-0.1,0-0.1,0.1-0.2l3.6-3.6c0.1-0.1,0.1-0.1,0.2-0.1
			s0.1,0,0.2,0.1l3.6,3.6C11.4,8.5,11.4,8.6,11.4,8.6z"/>
	</g>
</g>
<g id="simple-thin-arrow-bottom" class="st0">
	<g class="st2">
		<path d="M11.4,5.4c0,0.1,0,0.1-0.1,0.2L7.7,9.2C7.6,9.2,7.6,9.3,7.5,9.3s-0.1,0-0.2-0.1L3.7,5.6C3.6,5.5,3.6,5.4,3.6,5.4
			c0-0.1,0-0.1,0.1-0.2l0.4-0.4c0.1-0.1,0.1-0.1,0.2-0.1s0.1,0,0.2,0.1l3.1,3.1l3.1-3.1c0.1-0.1,0.1-0.1,0.2-0.1s0.1,0,0.2,0.1
			l0.4,0.4C11.4,5.2,11.4,5.3,11.4,5.4z"/>
	</g>
</g>
<g id="simple-thin-arrow-left" class="st0">
	<g class="st2">
		<path d="M9.8,3.7c0,0.1,0,0.1-0.1,0.2L6.6,7l3.1,3.1c0.1,0.1,0.1,0.1,0.1,0.2s0,0.1-0.1,0.2l-0.4,0.4c-0.1,0.1-0.1,0.1-0.2,0.1
			s-0.1,0-0.2-0.1L5.3,7.2C5.3,7.1,5.2,7.1,5.2,7c0-0.1,0-0.1,0.1-0.2l3.6-3.6C9,3.1,9.1,3.1,9.1,3.1s0.1,0,0.2,0.1l0.4,0.4
			C9.7,3.6,9.8,3.7,9.8,3.7z"/>
	</g>
</g>
<g id="user" class="st0">
	<g class="st2">
		<path d="M13,11c0,0.6-0.2,1.1-0.6,1.5S11.5,13,10.9,13H4.1c-0.6,0-1.1-0.2-1.5-0.5S2,11.6,2,11c0-0.3,0-0.5,0-0.8
			c0-0.3,0.1-0.5,0.1-0.9s0.1-0.6,0.2-0.8C2.4,8.2,2.5,8,2.7,7.7C2.8,7.5,3,7.2,3.2,7.1c0.2-0.2,0.4-0.3,0.7-0.4
			c0.3-0.1,0.6-0.2,0.9-0.2c0,0,0.2,0.1,0.3,0.2C5.2,6.8,5.4,6.9,5.6,7c0.2,0.1,0.5,0.3,0.8,0.4c0.3,0.1,0.7,0.2,1,0.2
			s0.7-0.1,1-0.2C8.9,7.3,9.2,7.2,9.4,7C9.6,6.9,9.8,6.8,10,6.7c0.2-0.1,0.3-0.2,0.3-0.2c0.3,0,0.6,0.1,0.9,0.2
			c0.3,0.1,0.5,0.2,0.7,0.4c0.2,0.2,0.3,0.4,0.5,0.6c0.1,0.2,0.3,0.5,0.3,0.8c0.1,0.3,0.2,0.5,0.2,0.8S13,9.9,13,10.2
			C13,10.4,13,10.7,13,11z M9.6,1.9c0.6,0.6,0.9,1.3,0.9,2.1s-0.3,1.5-0.9,2.1S8.3,7,7.5,7S6,6.7,5.4,6.1S4.5,4.8,4.5,4
			s0.3-1.5,0.9-2.1S6.7,1,7.5,1S9,1.3,9.6,1.9z"/>
	</g>
</g>
<g id="users" class="st0">
	<g class="st2">
		<path d="M4.6,7C3.8,7,3.1,7.4,2.6,8h-1C1.1,8,0.7,7.9,0.4,7.7S0,7.2,0,6.8C0,4.9,0.3,4,1,4c0,0,0.1,0.1,0.3,0.2s0.4,0.2,0.8,0.3
			C2.4,4.6,2.7,4.7,3,4.7c0.3,0,0.7-0.1,1-0.2C4,4.7,4,4.8,4,5C4,5.7,4.2,6.4,4.6,7z M4.4,0.6C4.8,1,5,1.4,5,2c0,0.6-0.2,1-0.6,1.4
			S3.6,4,3,4S2,3.8,1.6,3.4S1,2.6,1,2c0-0.6,0.2-1,0.6-1.4S2.4,0,3,0S4,0.2,4.4,0.6z M13,12c0,0.6-0.2,1.1-0.6,1.5S11.5,14,10.9,14
			H4.1c-0.6,0-1.1-0.2-1.5-0.5S2,12.6,2,12c0-0.3,0-0.5,0-0.8c0-0.3,0.1-0.5,0.1-0.9s0.1-0.6,0.2-0.8C2.4,9.2,2.5,9,2.7,8.7
			C2.8,8.5,3,8.2,3.2,8.1c0.2-0.2,0.4-0.3,0.7-0.4c0.3-0.1,0.6-0.2,0.9-0.2c0.1,0,0.2,0.1,0.3,0.2C5.2,7.8,5.4,7.9,5.6,8
			c0.2,0.1,0.5,0.3,0.8,0.4c0.3,0.1,0.7,0.2,1.1,0.2s0.7-0.1,1.1-0.2C8.9,8.3,9.2,8.2,9.4,8C9.6,7.9,9.8,7.8,10,7.7
			c0.2-0.1,0.3-0.2,0.3-0.2c0.3,0,0.6,0.1,0.9,0.2c0.3,0.1,0.5,0.2,0.7,0.4c0.2,0.2,0.3,0.4,0.5,0.6c0.1,0.2,0.3,0.5,0.3,0.8
			c0.1,0.3,0.2,0.5,0.2,0.8s0.1,0.6,0.1,0.9C13,11.4,13,11.7,13,12z M9.6,2.9c0.6,0.6,0.9,1.3,0.9,2.1s-0.3,1.5-0.9,2.1S8.3,8,7.5,8
			S6,7.7,5.4,7.1S4.5,5.8,4.5,5s0.3-1.5,0.9-2.1S6.7,2,7.5,2S9,2.3,9.6,2.9z M13.4,0.6C13.8,1,14,1.4,14,2c0,0.6-0.2,1-0.6,1.4
			S12.6,4,12,4s-1-0.2-1.4-0.6S10,2.6,10,2c0-0.6,0.2-1,0.6-1.4S11.4,0,12,0S13,0.2,13.4,0.6z M15,6.8c0,0.4-0.1,0.7-0.4,0.9
			S13.9,8,13.5,8h-1c-0.5-0.6-1.2-1-2.1-1C10.8,6.4,11,5.7,11,5c0-0.2,0-0.3,0-0.5c0.3,0.1,0.7,0.2,1,0.2c0.3,0,0.6-0.1,0.9-0.2
			c0.3-0.1,0.6-0.2,0.8-0.3S14,4,14,4C14.7,4,15,4.9,15,6.8z"/>
	</g>
</g>
<g id="cross-circle" class="st0">
	<g class="st2">
		<path d="M12.7,4c0.5,0.9,0.8,1.9,0.8,3c0,1.1-0.3,2.1-0.8,3c-0.5,0.9-1.3,1.6-2.2,2.2S8.6,13,7.5,13s-2.1-0.3-3-0.8
			S2.8,10.9,2.3,10C1.8,9.1,1.5,8.1,1.5,7c0-1.1,0.3-2.1,0.8-3c0.5-0.9,1.3-1.6,2.2-2.2C5.4,1.3,6.4,1,7.5,1s2.1,0.3,3,0.8
			C11.4,2.3,12.2,3.1,12.7,4z M10.5,8.8c0-0.1,0-0.3-0.1-0.4L8.9,7l1.4-1.4c0.1-0.1,0.1-0.2,0.1-0.4c0-0.1,0-0.3-0.1-0.4L9.6,4.2
			C9.5,4.1,9.4,4,9.3,4C9.1,4,9,4.1,8.9,4.2L7.5,5.6L6.1,4.2C6,4.1,5.9,4,5.7,4c-0.1,0-0.3,0-0.4,0.1L4.7,4.9C4.6,5,4.5,5.1,4.5,5.2
			c0,0.1,0,0.3,0.1,0.4L6.1,7L4.7,8.4C4.6,8.5,4.5,8.6,4.5,8.8c0,0.1,0,0.3,0.1,0.4l0.7,0.7C5.5,9.9,5.6,10,5.7,10
			c0.1,0,0.3,0,0.4-0.1l1.4-1.4l1.4,1.4C9,9.9,9.1,10,9.3,10c0.1,0,0.3,0,0.4-0.1l0.7-0.7C10.4,9,10.5,8.9,10.5,8.8z"/>
	</g>
</g>
<g id="Capa_48" class="st0">
	<g class="st2">
		<path d="M12.7,4c0.5,0.9,0.8,1.9,0.8,3c0,1.1-0.3,2.1-0.8,3c-0.5,0.9-1.3,1.6-2.2,2.2c-0.9,0.5-1.9,0.8-3,0.8
			c-1.1,0-2.1-0.3-3-0.8c-0.9-0.5-1.6-1.3-2.2-2.2C1.8,9.1,1.5,8.1,1.5,7c0-1.1,0.3-2.1,0.8-3c0.5-0.9,1.3-1.6,2.2-2.2
			C5.4,1.3,6.4,1,7.5,1c1.1,0,2.1,0.3,3,0.8C11.4,2.3,12.2,3.1,12.7,4z M11.2,9.1c0.4-0.7,0.6-1.4,0.6-2.1c0-0.8-0.2-1.5-0.6-2.1
			c-0.4-0.7-0.9-1.2-1.5-1.5C9,2.9,8.3,2.8,7.5,2.8C6.7,2.8,6,2.9,5.4,3.3C4.7,3.7,4.2,4.2,3.8,4.9C3.4,5.5,3.3,6.2,3.3,7
			c0,0.8,0.2,1.5,0.6,2.1c0.4,0.7,0.9,1.2,1.5,1.5c0.7,0.4,1.4,0.6,2.1,0.6c0.8,0,1.5-0.2,2.1-0.6C10.3,10.3,10.8,9.8,11.2,9.1z
			 M10.8,7c0,0.2-0.1,0.3-0.2,0.4L6.3,9.9C6.2,10,6.1,10,6,10c-0.1,0-0.2,0-0.2-0.1C5.6,9.8,5.5,9.7,5.5,9.5v-5
			c0-0.2,0.1-0.3,0.2-0.4C5.9,4,6.1,4,6.3,4.1l4.2,2.5C10.7,6.7,10.8,6.8,10.8,7z"/>
	</g>
</g>
<g id="Capa_49" class="st0">
	<path class="st3" d="M13,7l1.2-1.2c0.2-0.2,0.2-0.4,0.2-0.6c-0.1-0.2-0.2-0.4-0.5-0.5l-1.7-0.4l0.5-1.7c0.1-0.2,0-0.5-0.2-0.6
		c-0.2-0.2-0.4-0.2-0.6-0.2l-1.7,0.5L9.8,0.6C9.7,0.3,9.6,0.2,9.3,0.1C9.1,0,8.9,0.1,8.7,0.3L7.5,1.5L6.3,0.3C6.1,0.1,5.9,0,5.7,0.1
		C5.4,0.2,5.3,0.3,5.2,0.6L4.8,2.3L3.1,1.8C2.8,1.7,2.6,1.8,2.5,2C2.3,2.1,2.2,2.3,2.3,2.6l0.5,1.7L1.1,4.7C0.8,4.8,0.7,4.9,0.6,5.2
		c-0.1,0.3,0,0.5,0.2,0.6L2,7L0.8,8.2C0.6,8.4,0.5,8.6,0.6,8.8c0.1,0.2,0.2,0.4,0.5,0.5l1.7,0.4l-0.5,1.7c-0.1,0.2,0,0.5,0.2,0.6
		c0.2,0.2,0.4,0.2,0.6,0.2l1.7-0.5l0.4,1.7c0.1,0.2,0.2,0.4,0.5,0.5c0.3,0.1,0.5,0,0.6-0.2l1.2-1.2l1.2,1.2c0.1,0.1,0.3,0.2,0.5,0.2
		l0.2,0c0.2-0.1,0.4-0.2,0.5-0.5l0.4-1.7l1.7,0.5c0.2,0.1,0.5,0,0.6-0.2c0.2-0.2,0.2-0.4,0.2-0.6l-0.5-1.7l1.7-0.4
		c0.2-0.1,0.4-0.2,0.5-0.5c0.1-0.3,0-0.5-0.2-0.6L13,7z M5.1,7.1C5,6.9,4.9,6.6,4.9,6.1c0-0.9,0.4-1.4,1.1-1.4
		c0.3,0,0.6,0.1,0.8,0.4C6.9,5.3,7,5.7,7,6.1c0,0.5-0.1,0.8-0.3,1.1C6.5,7.4,6.3,7.5,5.9,7.5C5.6,7.5,5.3,7.4,5.1,7.1z M6.6,9.2H5.9
		l2.5-4.5h0.7L6.6,9.2z M9.9,8.9C9.7,9.2,9.4,9.3,9.1,9.3c-0.3,0-0.6-0.1-0.8-0.4C8.1,8.7,8,8.3,8,7.9C8,7,8.4,6.5,9.1,6.5
		c0.3,0,0.6,0.1,0.8,0.4c0.2,0.2,0.3,0.6,0.3,1C10.1,8.4,10,8.7,9.9,8.9z M6.2,6.1c0-0.5-0.1-0.8-0.3-0.8c-0.1,0-0.2,0.1-0.2,0.2
		c0,0.1-0.1,0.3-0.1,0.6s0,0.5,0.1,0.6c0,0.1,0.1,0.2,0.2,0.2C6.1,6.9,6.2,6.6,6.2,6.1z M9.1,7.1C9,7.1,8.9,7.2,8.8,7.3
		c0,0.1-0.1,0.3-0.1,0.6c0,0.3,0,0.5,0.1,0.6c0,0.1,0.1,0.2,0.2,0.2c0.2,0,0.3-0.3,0.3-0.8C9.4,7.4,9.3,7.1,9.1,7.1z"/>
</g>
<g id="garbarino-viajes" class="st0">
	<g class="st2">
		<path class="st4" d="M9.4,5.6c0,0,1.6-0.5,2.6-0.8c1-0.3,2.8-0.5,3-0.2c0.2,0.4-1.2,1.4-2.1,1.7c-0.9,0.3-2.7,1.1-2.7,1.1
			s0.1,0.4,0.1,0.4C10.3,8,10.2,8,10.2,8s-0.6,0.2-1,0.3C8.7,8.4,8.3,8.4,8.2,8.4c0,0,0-0.2-0.1-0.2c-0.1,0-2.7,0.6-3.5,0.5
			C3.8,8.7,1,8.5,1,8.5L0.9,8.3l1-0.4L1.2,7.8L0,6c0,0-0.1-0.1,0-0.1c0.1,0,0.5,0,0.5,0l2.7,1.2c0,0,1,0.2,1.6,0.1
			c0.6-0.1,1.7-0.7,1.7-0.7s0.8,0.6,0.9,0.7c0.1,0.1,0.2,0,0.2,0c0,0,0-0.1-0.1-0.1C7.1,6.5,5.2,4.2,5.2,4.1C5.2,4,5,3.2,5.1,3.2
			c0.1,0,0.2,0,0.2,0c0,0,0.5,0.4,0.5,0.4c0,0,0,0.3,0,0.4c0,0,0.4-0.2,0.4-0.2C6.2,3.8,9.4,5.6,9.4,5.6z"/>
	</g>
	<rect x="1.1" y="9.5" class="st3" width="7.1" height="1.2"/>
</g>
<g id="Layer_52" class="st0">
	<path class="st5" d="M14,3.4c-0.7-0.8-1.6-1.5-2.7-2C10.1,1,8.9,0.8,7.5,0.8c-1,0-2,0.1-2.9,0.4C3.7,1.5,2.9,1.9,2.2,2.3
		C1.5,2.8,1,3.4,0.6,4.1C0.2,4.7,0,5.4,0,6.1C0,7,0.3,7.8,0.8,8.5C1.3,9.2,2,9.8,2.8,10.3c-0.1,0.2-0.1,0.4-0.2,0.6
		c-0.1,0.2-0.2,0.4-0.2,0.5s-0.2,0.3-0.3,0.4C2,12,1.9,12.1,1.9,12.2c-0.1,0.1-0.2,0.2-0.3,0.3c-0.1,0.1-0.2,0.2-0.3,0.3
		c0,0,0,0-0.1,0.1c0,0-0.1,0.1-0.1,0.1c0,0,0,0-0.1,0.1s0,0.1,0,0.1s0,0,0,0.1c0,0,0,0.1,0,0.1v0c0,0.1,0.1,0.2,0.1,0.2
		c0.1,0.1,0.2,0.1,0.3,0.1c0.4,0,0.7-0.1,1-0.2c1.5-0.4,2.7-1,3.9-2c0.4,0,0.8,0.1,1.2,0.1c1.4,0,2.6-0.2,3.8-0.7
		c1.1-0.5,2.1-1.1,2.7-2c0.7-0.8,1-1.7,1-2.7C15,5.2,14.7,4.3,14,3.4z"/>
</g>
<g id="Capa_56" class="st0">
	<g class="st2">
		<path d="M15,2.5c0,0.4-0.1,0.9-0.4,1.3s-0.6,0.7-1,1c-2.1,1.5-3.4,2.4-3.9,2.7c-0.1,0-0.2,0.1-0.4,0.3C9.1,7.9,9,8,8.8,8.1
			C8.7,8.2,8.6,8.3,8.4,8.4C8.2,8.5,8.1,8.6,7.9,8.6c-0.1,0-0.3,0.1-0.4,0.1h0h0c-0.1,0-0.3,0-0.4-0.1C6.9,8.6,6.8,8.5,6.6,8.4
			C6.4,8.3,6.3,8.2,6.2,8.1C6,8,5.9,7.9,5.7,7.8C5.5,7.7,5.4,7.6,5.4,7.5C4.8,7.2,4.1,6.7,3.2,6C2.2,5.4,1.6,5,1.4,4.8
			c-0.3-0.2-0.7-0.6-1-1S0,3.1,0,2.7c0-0.4,0.1-0.8,0.3-1.1c0.2-0.3,0.6-0.4,1-0.4h12.3c0.4,0,0.7,0.1,0.9,0.4
			C14.9,1.8,15,2.2,15,2.5z M15,5v6.6c0,0.4-0.1,0.7-0.4,0.9S14,13,13.7,13H1.3c-0.4,0-0.7-0.1-0.9-0.4C0.1,12.3,0,12,0,11.6V5
			c0.2,0.3,0.5,0.5,0.8,0.7c2,1.4,3.4,2.3,4.2,2.9C5.3,8.8,5.6,9,5.8,9.2C6,9.3,6.2,9.4,6.6,9.6c0.3,0.1,0.6,0.2,0.9,0.2h0h0
			c0.3,0,0.6-0.1,0.9-0.2C8.8,9.4,9,9.3,9.2,9.2C9.4,9,9.7,8.8,10,8.6c0.9-0.7,2.3-1.6,4.2-2.9C14.5,5.5,14.8,5.3,15,5z"/>
	</g>
</g>
<g id="notifications" class="st0">
	<path class="st2" d="M11.5,4.5c0-1.5-1.2-3.1-3.3-3.4c0-0.1,0.1-0.2,0.1-0.3C8.2,0.3,7.9,0,7.5,0S6.8,0.3,6.8,0.8
		c0,0.1,0,0.2,0.1,0.3C4.7,1.4,3.5,3,3.5,4.5C3.5,8.3,2.2,10,1,11c0,0.5,0.5,1,1,1h3.5c0,1.1,0.9,2,2,2s2-0.9,2-2H13
		c0.5,0,1-0.5,1-1C12.8,10,11.5,8.3,11.5,4.5z M7.5,13.4c-0.8,0-1.4-0.6-1.4-1.4c0-0.1,0.1-0.1,0.1-0.1s0.1,0.1,0.1,0.1
		c0,0.6,0.5,1.1,1.1,1.1c0.1,0,0.1,0.1,0.1,0.1C7.6,13.3,7.6,13.4,7.5,13.4z"/>
</g>
<g id="compras" class="st0">
	<g class="st2">
		<path d="M5,5.5c0.3,0,0.5-0.2,0.5-0.5V3c0-1.1,0.9-2,2-2s2,0.9,2,2v2c0,0.3,0.2,0.5,0.5,0.5c0.3,0,0.5-0.2,0.5-0.5V3
			c0-1.7-1.3-3-3-3s-3,1.3-3,3v2C4.5,5.3,4.7,5.5,5,5.5z"/>
		<path d="M13.5,4.5C13.4,4.2,13.2,4,13,4h-2v1c0,0.6-0.4,1-1,1S9,5.6,9,5V4H6v1c0,0.6-0.4,1-1,1S4,5.6,4,5V4H2
			C1.8,4,1.6,4.2,1.5,4.5l-0.7,6h13.3L13.5,4.5z"/>
		<path d="M14.2,11H0.8l-0.3,2.4c0,0.1,0,0.3,0.1,0.4C0.7,13.9,0.9,14,1,14h13c0.1,0,0.3-0.1,0.4-0.2c0.1-0.1,0.1-0.2,0.1-0.4
			L14.2,11z"/>
	</g>
</g>
<g id="dashboard" class="st0">
	<path class="st2" d="M7.5,1.2c-4.1,0-7.4,3.3-7.4,7.4c0,1.4,0.4,2.8,1.2,4c0.1,0.1,0.3,0.2,0.4,0.2h11.5c0.2,0,0.3-0.1,0.4-0.2
		c0.8-1.2,1.2-2.6,1.2-4C14.9,4.5,11.6,1.2,7.5,1.2z M7.5,2.3c0.6,0,1.1,0.5,1.1,1.1c0,0.6-0.5,1.1-1.1,1.1S6.4,3.9,6.4,3.3
		C6.4,2.7,6.9,2.3,7.5,2.3z M2.2,9.6c-0.6,0-1.1-0.5-1.1-1.1c0-0.6,0.5-1.1,1.1-1.1c0.6,0,1.1,0.5,1.1,1.1C3.3,9.2,2.8,9.6,2.2,9.6z
		 M3.8,5.9c-0.6,0-1.1-0.5-1.1-1.1c0-0.6,0.5-1.1,1.1-1.1c0.6,0,1.1,0.5,1.1,1.1C4.9,5.5,4.4,5.9,3.8,5.9z M9.2,5.7L8.4,8.9
		c0.5,0.4,0.8,1,0.6,1.7c-0.2,0.8-1.1,1.4-1.9,1.1C6.3,11.5,5.7,10.6,6,9.8c0.2-0.7,0.7-1.1,1.4-1.2l0.8-3.1C8.3,5.2,8.6,5,8.8,5.1
		C9.1,5.1,9.3,5.4,9.2,5.7z M10.1,4.9c0-0.6,0.5-1.1,1.1-1.1c0.6,0,1.1,0.5,1.1,1.1c0,0.6-0.5,1.1-1.1,1.1
		C10.6,5.9,10.1,5.5,10.1,4.9z M12.8,9.6c-0.6,0-1.1-0.5-1.1-1.1c0-0.6,0.5-1.1,1.1-1.1c0.6,0,1.1,0.5,1.1,1.1
		C13.8,9.2,13.4,9.6,12.8,9.6z"/>
</g>
<g id="preferences" class="st0">
	<path class="st2" d="M14.2,5.7l-1.7-0.3c-0.1-0.3-0.2-0.6-0.4-0.9c0.3-0.4,0.6-0.8,1-1.2c0-0.1,0.1-0.1,0.1-0.2
		c0-0.1,0-0.1-0.1-0.2c-0.4-0.5-1-1.1-1.5-1.5c-0.1-0.1-0.1-0.1-0.2-0.1c-0.1,0-0.2,0-0.2,0.1l-1.3,1C9.7,2.2,9.4,2,9.1,2L8.8,0.3
		C8.8,0.1,8.7,0,8.5,0h-2C6.3,0,6.2,0.1,6.2,0.3C6,0.8,6,1.4,5.9,2C5.6,2,5.3,2.2,5.1,2.3l-1.3-1C3.7,1.3,3.7,1.2,3.6,1.2
		C3.3,1.2,2,2.6,1.8,2.9c0,0.1-0.1,0.1-0.1,0.2c0,0.1,0,0.2,0.1,0.2c0.3,0.4,0.7,0.8,1,1.3C2.7,4.8,2.5,5.1,2.4,5.4L0.7,5.6
		C0.6,5.7,0.5,5.8,0.5,6v2c0,0.2,0.1,0.3,0.3,0.3l1.7,0.2c0.1,0.3,0.2,0.6,0.4,0.9c-0.3,0.4-0.6,0.8-1,1.2c0,0.1-0.1,0.1-0.1,0.2
		c0,0.1,0,0.1,0.1,0.2c0.4,0.5,1,1.1,1.5,1.5c0.1,0.1,0.1,0.1,0.2,0.1c0.1,0,0.2,0,0.2-0.1l1.3-1C5.3,11.8,5.6,12,5.9,12l0.3,1.7
		c0,0.2,0.2,0.3,0.3,0.3h2c0.2,0,0.3-0.1,0.3-0.3C9,13.2,9,12.6,9.1,12c0.3-0.1,0.6-0.2,0.8-0.3l1.3,1c0.1,0,0.2,0.1,0.2,0.1
		c0.3,0,1.5-1.3,1.8-1.6c0.1-0.1,0.1-0.1,0.1-0.2s0-0.2-0.1-0.2c-0.3-0.4-0.7-0.8-1-1.3c0.1-0.3,0.3-0.5,0.4-0.8l1.7-0.3
		c0.1,0,0.3-0.2,0.3-0.3V6C14.5,5.9,14.4,5.7,14.2,5.7z M7.5,9.3c-1.3,0-2.3-1-2.3-2.3c0-1.3,1-2.3,2.3-2.3s2.3,1,2.3,2.3
		C9.8,8.3,8.8,9.3,7.5,9.3z"/>
</g>
<g id="clock">
	<g>
		<path d="M7.5,0c-3.9,0-7,3.1-7,7c0,3.9,3.1,7,7,7s7-3.1,7-7C14.5,3.1,11.4,0,7.5,0z M7.5,12c-2.7,0-5-2.2-5-5s2.2-5,5-5s5,2.2,5,5
			S10.2,12,7.5,12z"/>
		<path d="M8.4,3.5H7.8c-0.2,0-0.3,0.1-0.3,0.3V7h-2C5.3,7,5.2,7.1,5.2,7.3v0.6c0,0.2,0.1,0.3,0.3,0.3h2.9c0.2,0,0.3-0.1,0.3-0.3
			V3.8C8.7,3.6,8.5,3.5,8.4,3.5z"/>
	</g>
</g>
<g id="Capa_62" class="st0">
	<g class="st2">
		<path d="M13.9,3v10c0,0.3-0.1,0.5-0.3,0.7c-0.2,0.2-0.4,0.3-0.7,0.3H2c-0.3,0-0.5-0.1-0.7-0.3C1.1,13.5,1,13.3,1,13V3
			c0-0.3,0.1-0.5,0.3-0.7C1.5,2.1,1.7,2,2,2h1V1.3c0-0.3,0.1-0.6,0.4-0.9C3.6,0.1,3.9,0,4.2,0h0.5C5,0,5.3,0.1,5.6,0.4
			C5.8,0.6,6,0.9,6,1.3V2h3V1.3c0-0.3,0.1-0.6,0.4-0.9C9.6,0.1,9.9,0,10.2,0h0.5c0.3,0,0.6,0.1,0.9,0.4c0.2,0.2,0.4,0.5,0.4,0.9V2h1
			c0.3,0,0.5,0.1,0.7,0.3C13.8,2.5,13.9,2.7,13.9,3z M2,7.3h2.2V5H2V7.3z M2,10.3h2.2V7.8H2V10.3z M2,13h2.2v-2.2H2V13z M5,3.5V1.3
			c0-0.1,0-0.1-0.1-0.2C4.8,1,4.8,1,4.7,1H4.2C4.1,1,4.1,1,4,1.1C4,1.1,4,1.2,4,1.3v2.2C4,3.6,4,3.6,4,3.7c0,0,0.1,0.1,0.2,0.1h0.5
			c0.1,0,0.1,0,0.2-0.1C4.9,3.6,5,3.6,5,3.5z M4.7,7.3h2.5V5H4.7V7.3z M4.7,10.3h2.5V7.8H4.7V10.3z M4.7,13h2.5v-2.2H4.7V13z
			 M7.7,7.3h2.5V5H7.7V7.3z M7.7,10.3h2.5V7.8H7.7V10.3z M7.7,13h2.5v-2.2H7.7V13z M10.9,3.5V1.3c0-0.1,0-0.1-0.1-0.2
			C10.8,1,10.8,1,10.7,1h-0.5c-0.1,0-0.1,0-0.2,0.1c-0.1,0-0.1,0.1-0.1,0.2v2.2c0,0.1,0,0.1,0.1,0.2c0,0,0.1,0.1,0.2,0.1h0.5
			c0.1,0,0.1,0,0.2-0.1C10.9,3.6,10.9,3.6,10.9,3.5z M10.7,7.3h2.2V5h-2.2V7.3z M10.7,10.3h2.2V7.8h-2.2V10.3z M10.7,13h2.2v-2.2
			h-2.2V13z"/>
	</g>
</g>
</svg>
