<?xml version="1.0" encoding="utf-8"?>
<!-- Generator: Adobe Illustrator 19.2.1, SVG Export Plug-In . SVG Version: 6.00 Build 0)  -->
<svg version="1.1" id="Capa_1" xmlns="http://www.w3.org/2000/svg" xmlns:xlink="http://www.w3.org/1999/xlink" x="0px" y="0px"
	 viewBox="0 0 15 14" style="enable-background:new 0 0 15 14;" xml:space="preserve">
<style type="text/css">
	.st0{fill:#1C1C1B;}
</style>
<path class="st0" d="M12.7,4c0.5,0.9,0.8,1.9,0.8,3c0,1.1-0.3,2.1-0.8,3c-0.5,0.9-1.3,1.7-2.2,2.2c-0.9,0.5-1.9,0.8-3,0.8
	c-1.1,0-2.1-0.3-3-0.8c-0.9-0.5-1.7-1.3-2.2-2.2C1.8,9.1,1.5,8.1,1.5,7c0-1.1,0.3-2.1,0.8-3c0.5-0.9,1.3-1.7,2.2-2.2
	C5.4,1.3,6.4,1,7.5,1c1.1,0,2.1,0.3,3,0.8C11.4,2.3,12.2,3.1,12.7,4z M10.5,8.8c0-0.1-0.1-0.3-0.1-0.4L8.9,7l1.4-1.4
	c0.1-0.1,0.2-0.2,0.1-0.3c0-0.1-0.1-0.3-0.1-0.4L9.6,4.2C9.5,4.1,9.4,4,9.3,4C9.1,4,9,4.1,8.9,4.1L7.5,5.6L6.1,4.2
	C6,4.1,5.9,4,5.7,4C5.6,4,5.5,4.1,5.4,4.1L4.7,4.8C4.6,4.9,4.5,5.1,4.5,5.2c0,0.1,0.1,0.3,0.2,0.3L6.1,7L4.7,8.4
	C4.6,8.5,4.5,8.6,4.5,8.8c0,0.1,0.1,0.3,0.2,0.4l0.7,0.7C5.5,9.9,5.6,10,5.7,10C5.9,10,6,9.9,6.1,9.8l1.4-1.4l1.4,1.4
	C9,9.9,9.1,10,9.3,10c0.1,0,0.3-0.1,0.4-0.1l0.7-0.7C10.4,9,10.5,8.9,10.5,8.8z"/>
</svg>
