<svg id="dashboard" xmlns="http://www.w3.org/2000/svg" viewBox="0 0 15 14"><defs><style>.cls-1{fill:#1d1d1b;}</style></defs><title>dashboard</title><path class="cls-1" d="M7.5,1.2A7.38,7.38,0,0,0,1.28,12.56a.53.53,0,0,0,.44.24H13.27a.53.53,0,0,0,.44-.24A7.38,7.38,0,0,0,7.5,1.2Zm0,1.05A1.05,1.05,0,1,1,6.45,3.31,1.05,1.05,0,0,1,7.5,2.26ZM2.23,9.63A1.05,1.05,0,1,1,3.28,8.58,1.05,1.05,0,0,1,2.23,9.63ZM3.81,5.95A1.05,1.05,0,1,1,4.87,4.89,1.05,1.05,0,0,1,3.81,5.95Zm5.41-.24L8.39,8.85A1.58,1.58,0,1,1,6,9.76a1.58,1.58,0,0,1,1.4-1.17L8.2,5.44a.53.53,0,0,1,.64-.38A.54.54,0,0,1,9.22,5.71Zm.91-.82a1.05,1.05,0,1,1,1.05,1.05A1.05,1.05,0,0,1,10.13,4.89Zm2.63,4.74a1.05,1.05,0,1,1,1.05-1.05A1.05,1.05,0,0,1,12.77,9.63Z"/></svg>