<svg xmlns="http://www.w3.org/2000/svg" viewBox="0 0 15 14" enable-background="new 0 0 15 14"><style type="text/css">.st0{fill:none;}</style><title>venta-telefonica</title><path class="st0" d="M0 0h15v14h-15v-14z"/><path d="M14 3.4c-.7-.9-1.7-1.6-2.7-2-1.2-.4-2.5-.7-3.8-.6-1 0-2 .1-2.9.4-.9.2-1.7.6-2.4 1.1-.7.5-1.2 1.1-1.6 1.8-.4.6-.6 1.3-.6 2 0 .9.3 1.7.8 2.4s1.2 1.4 2 1.8l-.2.6c-.1.2-.2.4-.2.5l-.3.4-.3.3-.3.3-.3.3-.1.1v.4c0 .1.1.2.1.2.1.1.2.1.3.1.3 0 .7-.1 1-.2 1.4-.3 2.7-1 3.8-2l1.2.1c1.3 0 2.6-.2 3.8-.7 1.1-.4 2-1.1 2.7-2 1.4-1.5 1.3-3.8 0-5.3z"/></svg>