<svg xmlns="http://www.w3.org/2000/svg" viewBox="0 0 15 14" enable-background="new 0 0 15 14"><style type="text/css">.st0{fill:#1C1C1B;}</style><title>double-thin-arrow-top</title><path class="st0" d="M11.4 7.1c0 .1 0 .1-.1.2l-.4.4c-.1.1-.3.1-.4 0l-3-3.1-3.1 3.1c-.1.1-.3.1-.4 0l-.3-.4c-.1-.1-.1-.3 0-.4l3.6-3.6c.1-.1.3-.1.4 0l3.6 3.6c.1.1.1.2.1.2zm0 3c0 .1 0 .1-.1.2l-.4.4c-.1.1-.3.1-.4 0l-3-3.1-3.1 3.1c-.1.1-.3.1-.4 0l-.4-.4c-.1 0-.1-.1-.1-.2s0-.1.1-.2l3.6-3.6c.1-.1.3-.1.4 0l3.6 3.6c.2.1.2.2.2.2z"/></svg>