<svg xmlns="http://www.w3.org/2000/svg" viewBox="0 0 15 14" enable-background="new 0 0 15 14"><style type="text/css">.st0{fill:#1C1C1B;}</style><title>double-thin-arrow-right</title><path class="st0" d="M8.3 7c0 .1 0 .1-.1.2l-3.6 3.6c-.1.1-.3.1-.4 0l-.4-.4c-.1 0-.1-.1-.1-.2s0-.1.1-.2l3.1-3-3.1-3.1c-.1-.1-.1-.3 0-.4l.4-.4c.1-.1.3-.1.4 0l3.6 3.6c0 .2.1.2.1.3zm3 0c0 .1 0 .1-.1.2l-3.6 3.6c-.1.1-.3.1-.4 0l-.4-.4c-.1 0-.1-.1-.1-.2s0-.1.1-.2l3.1-3-3.1-3.1c-.1-.1-.1-.3 0-.4l.4-.4c.1-.1.3-.1.4 0l3.6 3.6c0 .2.1.2.1.3z"/></svg>