<svg xmlns="http://www.w3.org/2000/svg" viewBox="0 0 15 13.85"><title>digital-download</title><path d="M15 10.17v2.88a.86.86 0 0 1-.87.87h-13.26a.83.83 0 0 1-.61-.25.83.83 0 0 1-.26-.61v-2.89a.83.83 0 0 1 .25-.61.83.83 0 0 1 .62-.25h4.19l1.22 1.23a1.74 1.74 0 0 0 2.45 0l1.27-1.23h4.18a.86.86 0 0 1 .82.86zm-3.46-5.48a.54.54 0 0 1 .53.35.52.52 0 0 1-.13.63l-4 4a.57.57 0 0 1-.81 0l-4-4a.52.52 0 0 1-.2-.67.54.54 0 0 1 .53-.35h2.31v-4a.55.55 0 0 1 .17-.4.55.55 0 0 1 .41-.17h2.3a.55.55 0 0 1 .41.17.55.55 0 0 1 .17.41v4h2.31zm-.17 7.91a.57.57 0 1 0-.41.17.55.55 0 0 0 .41-.17zm2.31 0a.57.57 0 1 0-.41.17.55.55 0 0 0 .4-.17z" transform="translate(0 -.08)"/></svg>