<svg xmlns="http://www.w3.org/2000/svg" viewBox="0 0 15 11.8" enable-background="new 0 0 15 11.8"><style type="text/css">.st0{fill:#1C1C1B;}</style><title>email</title><path class="st0" d="M1.4 3.6l1.7 1.2 2.2 1.5.4.3.5.3.4.3c.2.1.3.2.5.2l.4.1c.1 0 .3 0 .4-.1l.5-.2.4-.3.5-.3.4-.3 3.9-2.8c.4-.3.7-.6 1-1 .2-.3.4-.7.4-1.2 0-.4-.1-.7-.4-.9-.3-.3-.6-.4-1-.4h-12.3c-.3 0-.7.1-1 .4-.2.4-.3.7-.3 1.1 0 .4.2.8.5 1.1.2.4.6.8.9 1zm8.6 3.8l-.8.6-.8.4c-.3.1-.6.2-.9.2-.3 0-.6-.1-.9-.2-.3-.1-.6-.3-.8-.4l-.8-.6c-.8-.5-2.1-1.5-4.2-2.9-.3-.2-.6-.4-.8-.7v6.6c0 .4.1.7.4 1 .2.3.6.4 1 .4h12.3c.7 0 1.3-.6 1.3-1.4v-6.6c-.3.3-.5.5-.8.7-1.9 1.3-3.3 2.2-4.2 2.9z"/></svg>