<svg xmlns="http://www.w3.org/2000/svg" viewBox="0 0 15 14" enable-background="new 0 0 15 14"><style type="text/css">.st0{fill:#1C1C1B;}</style><title>exclamation-mark-triangle</title><path class="st0" d="M8.4 1l6 11c.2.3.2.7 0 1-.1.1-.2.3-.4.4-.2.1-.3.1-.5.1h-12c-.2 0-.3 0-.5-.1s-.3-.2-.4-.4c-.2-.3-.2-.7 0-1l6-11 .4-.4c.3-.2.7-.2 1 0 .2.1.3.2.4.4zm.1 7.3l.1-3.6c0-.1 0-.1-.1-.2 0 0-.1-.1-.2-.1h-1.7c-.1 0-.1 0-.2.1-.1 0-.1.1-.1.2l.1 3.6c0 .1 0 .1.1.1l.2.1h1.4c.1 0 .1 0 .2-.1.1 0 .2 0 .2-.1zm0 2.9v-1.4c0-.1 0-.1-.1-.2 0 0-.1-.1-.2-.1h-1.4c-.1 0-.1 0-.2.1 0 0-.1.1-.1.2v1.5c0 .1 0 .1.1.2 0 0 .1.1.2.1h1.5c.1 0 .1 0 .2-.1v-.3z"/></svg>