<svg xmlns="http://www.w3.org/2000/svg" viewBox="0 0 15 14" enable-background="new 0 0 15 14"><style type="text/css">.st0{fill:#1C1C1B;}</style><title>exclamation-mark-circle</title><path class="st0" d="M4.5 1.8c.9-.5 1.9-.8 3-.8s2.1.3 3 .8c.9.5 1.7 1.3 2.2 2.2.5.9.8 1.9.8 3s-.3 2.1-.8 3c-.5.9-1.3 1.7-2.2 2.2-.9.5-1.9.8-3 .8s-2.1-.3-3-.8c-.9-.5-1.7-1.3-2.2-2.2-.5-.9-.8-1.9-.8-3s.3-2.1.8-3c.5-.9 1.3-1.7 2.2-2.2zm4 6.3l.1-4.9c0-.1 0-.1-.1-.1 0-.1-.1-.1-.1-.1h-1.8s-.1 0-.2.1c-.1 0-.1.1-.1.1l.1 4.9c0 .1 0 .1.1.1l.2.1h1.4c.1 0 .1 0 .2-.1.1 0 .2-.1.2-.1zm0 2.6v-1.4c0-.1 0-.1-.1-.2 0-.1-.1-.1-.1-.1h-1.5c-.2 0-.3.1-.3.3v1.5c0 .1.1.3.3.3h1.5c.1 0 .1 0 .2-.1v-.3z"/></svg>