<svg xmlns="http://www.w3.org/2000/svg" viewBox="0 0 15 14" enable-background="new 0 0 15 14"><style type="text/css">.st0{fill:#1C1C1B;}</style><title>fire</title><path class="st0" d="M13 13.2v.5c0 .1-.1.2-.2.2h-10.6c-.1.1-.2 0-.2-.1v-.5c0-.2.1-.3.2-.3h10.5c.2 0 .3.1.3.2zm-2-8.2c0 .4-.1.8-.2 1.1-.1.3-.3.6-.5.9-.2.2-.4.5-.7.7l-.7.6c-.3.2-.5.4-.7.6-.2.1-.4.4-.5.6-.1.2-.2.5-.2.8 0 .6.2 1.2.5 1.7l-1.2-.6c-.4-.2-.7-.5-1.1-.8-.3-.3-.6-.6-.9-1-.3-.4-.5-.8-.6-1.2-.1-.5-.2-.9-.2-1.4 0-.4.1-.8.2-1.1.1-.3.3-.6.5-.9.2-.2.4-.5.7-.7l.8-.6c.3-.2.5-.4.7-.6.1-.1.3-.4.4-.6.1-.2.2-.5.2-.7 0-.7-.2-1.3-.5-1.8l1.2.6c.4.3.8.5 1.1.8.3.3.6.6.9 1l.6 1.2c.1.5.2.9.2 1.4z"/></svg>