<svg xmlns="http://www.w3.org/2000/svg" viewBox="0 0 15 14" enable-background="new 0 0 15 14"><style type="text/css">.st0{fill:#1C1C1B;}</style><title>gallery-view</title><path class="st0" d="M4.5 2.2v1.5c0 .4-.3.8-.8.8h-2.5c-.2 0-.4-.1-.5-.2-.1-.2-.2-.4-.2-.5v-1.6c0-.2.1-.4.2-.5.1-.1.3-.2.5-.2h2.5c.5 0 .8.3.8.7zm0 4v1.5c0 .4-.3.8-.8.8h-2.5c-.2 0-.4-.1-.5-.2-.1-.2-.2-.4-.2-.5v-1.6c0-.2.1-.4.2-.5.1-.1.3-.2.5-.2h2.5c.5 0 .8.3.8.7zm0 4v1.5c0 .4-.3.8-.8.8h-2.5c-.2 0-.4-.1-.5-.2-.1-.1-.2-.3-.2-.5v-1.5c0-.4.3-.8.8-.8h2.5c.4 0 .7.3.7.7zm5-8v1.5c0 .4-.3.8-.8.8h-2.5c-.4 0-.8-.3-.8-.8v-1.5c0-.4.3-.8.8-.8h2.5c.5.1.8.4.8.8zm0 4v1.5c0 .4-.3.8-.8.8h-2.5c-.4 0-.8-.3-.8-.8v-1.5c0-.4.3-.8.8-.8h2.5c.5.1.8.4.8.8zm0 4v1.5c0 .4-.3.8-.8.8h-2.5c-.4 0-.8-.3-.8-.8v-1.5c0-.4.3-.8.8-.8h2.5c.5.1.8.4.8.8zm5-8v1.5c0 .4-.3.8-.8.8h-2.5c-.4 0-.8-.3-.8-.8v-1.5c0-.4.3-.8.8-.8h2.5c.5.1.8.4.8.8zm0 4v1.5c0 .4-.3.8-.8.8h-2.5c-.4 0-.8-.3-.8-.8v-1.5c0-.4.3-.8.8-.8h2.5c.5.1.8.4.8.8zm0 4v1.5c0 .4-.3.8-.8.8h-2.5c-.4 0-.8-.3-.8-.8v-1.5c0-.4.3-.8.8-.8h2.5c.5.1.8.4.8.8z"/></svg>