<svg xmlns="http://www.w3.org/2000/svg" viewBox="0 0 15 14" enable-background="new 0 0 15 14"><style type="text/css">.st0{fill:#1C1C1B;}</style><path class="st0" d="M13.8 4.2c-.8-.8-1.8-1.2-2.8-1.2h-7c-1.1 0-2.1.4-2.8 1.2-.8.7-1.2 1.7-1.2 2.8 0 1 .4 2.1 1.2 2.8.7.8 1.7 1.2 2.8 1.2 1 0 1.9-.3 2.7-1h1.7c1.6 1.4 4 1.3 5.5-.2.7-.7 1.1-1.8 1.1-2.8 0-1.1-.5-2.1-1.2-2.8zm-7.5 3.5h-1.6v1.5c0 .1-.1.2-.2.2h-1c-.1 0-.2-.1-.2-.2v-1.5h-1.5c-.1 0-.2-.1-.2-.2v-1c0-.1.1-.2.2-.2h1.5v-1.6c0-.1.1-.2.2-.2h1c.1 0 .2.1.2.2v1.5h1.5c.1 0 .2.1.2.2v1.1l-.1.2zm1.8-2.2c0-.6.5-1 1-1s1 .5 1 1-.5 1-1 1-1-.4-1-1zm2.6 3.2c-.2.2-.5.3-.7.3-.3 0-.6-.1-.7-.3-.4-.4-.4-1 0-1.4.4-.4 1-.4 1.4 0 .4.4.4 1 0 1.4zm2-2c-.2.2-.5.3-.7.3-.3 0-.5-.1-.7-.3-.4-.4-.4-1 0-1.4.4-.4 1-.4 1.4 0 .4.4.4 1 0 1.4z"/></svg>