<?xml version="1.0" encoding="utf-8"?>
<!-- Generator: Adobe Illustrator 17.0.0, SVG Export Plug-In . SVG Version: 6.00 Build 0)  -->
<!DOCTYPE svg PUBLIC "-//W3C//DTD SVG 1.1//EN" "http://www.w3.org/Graphics/SVG/1.1/DTD/svg11.dtd">
<svg version="1.1" id="Capa_1" xmlns="http://www.w3.org/2000/svg" xmlns:xlink="http://www.w3.org/1999/xlink" x="0px" y="0px"
	 width="1050.689px" height="792px" viewBox="-139.117 0 1050.689 792" enable-background="new -139.117 0 1050.689 792"
	 xml:space="preserve">
<title>logogv_headergarbarino</title>
<g>
	<path d="M-114.814,448.388h-11.622v17.962c5.152,2.33,10.724,3.587,16.378,3.698h21.659c6.691-1.28,13.373-2.59,20.054-3.91
		c-2.319-7.105-4.51-14.213-6.318-21.447L-114.814,448.388z"/>
	<path d="M-121.153,444.162c0-3.17,0-6.867,0-10.037l-7.925,4.225h-7.397h-2.642v10.037h12.678v-1.056L-121.153,444.162z"/>
	<path d="M910.08,166.278c-8.453-21.131-50.188-4.755-50.188-4.755l-77.132,31.17l-62.868,24.831l-38.037,14.792l-35.395,13.736
		l-9.928,3.971l19.437,42.519l22.717-8.981l7.925-5.283l33.812-13.208L708.8,399.784l21.131-8.453l52.829-150.037l93.508-37.509
		C876.268,203.787,920.116,187.409,910.08,166.278z"/>
	<path d="M634.801,250.277h1.092l0.638-0.254l-5.921-12.952C632.08,241.45,633.476,245.854,634.801,250.277z"/>
	<path d="M626.384,250.277c-223.296,96.36-456.183,168.71-694.729,215.859c2.423,7.424,4.989,14.843,7.418,22.402
		C10.713,679.501,223.437,776.41,414.54,705.14c147.066-56.151,242.466-199.25,237.733-356.6
		c-2.013-33.335-7.881-66.307-17.468-98.263h-4.191H626.384z M321.03,587.33l-0.528,1.586
		c-80.043,19.563-162.276-22.793-192.827-99.319c0-3.698-4.226-11.622-5.283-15.848c57.057-14.792,132.603-36.981,189.13-52.829
		l27.471,71.317l105.658-38.565C433.375,518.689,384.971,571.022,321.03,587.33z"/>
	<path d="M119.75,397.672c13.018-80.193,82.529-138.942,163.771-138.414c34.953-0.615,69.129,10.343,97.205,31.17l202.866-76.602
		C498.767,87.644,343.519,28.764,196.352,66.959C25.499,109.539-91.637,266.678-83.644,442.576
		C-14.972,431.89,52.96,416.893,119.75,397.672z"/>
</g>
<polygon points="519.087,260.525 453.993,227.422 443.144,231.595 488.487,272.765 "/>
</svg>
