<svg xmlns="http://www.w3.org/2000/svg" viewBox="0 0 14.97 13.1"><defs><style>.cls-1{fill:#010101;fill-rule:evenodd;}</style></defs><title>iconos</title><path class="cls-1" d="M14.91 4.81a.3.3 0 0 0-.22-.09h-4.29a2.1 2.1 0 0 0 1.55-.64 2.1 2.1 0 0 0 .64-1.55 2.1 2.1 0 0 0-.65-1.53 2.1 2.1 0 0 0-1.54-.65 2 2 0 0 0-1.64.75l-1.25 1.61-1.25-1.61a2 2 0 0 0-1.63-.75 2.1 2.1 0 0 0-1.55.65 2.1 2.1 0 0 0-.64 1.55 2.1 2.1 0 0 0 .64 1.55 2.1 2.1 0 0 0 1.55.64h-4.29a.3.3 0 0 0-.34.26v3.15a.3.3 0 0 0 .31.31h.96v4.06a.93.93 0 0 0 .94.94h10.61a.93.93 0 0 0 .94-.94v-4.05h.94a.3.3 0 0 0 .3-.32v-3.15a.3.3 0 0 0-.09-.19zm-5.18-2.91a.83.83 0 0 1 .67-.3.93.93 0 0 1 .94.94.93.93 0 0 1-.94.94h-1.89zm-5.73 1.3a.9.9 0 0 1-.27-.66.93.93 0 0 1 .9-.94.83.83 0 0 1 .67.3l1.23 1.57h-1.9a.9.9 0 0 1-.63-.27zm5.07 3.39v5.11a.44.44 0 0 1-.18.38.73.73 0 0 1-.45.13h-1.86a.73.73 0 0 1-.45-.13.44.44 0 0 1-.13-.38v-7h3.07v1.89z" transform="translate(-.03 -.35)"/></svg>