<svg xmlns="http://www.w3.org/2000/svg" viewBox="0 0 15 14" enable-background="new 0 0 15 14"><style type="text/css">.st0{fill:#1C1C1B;}</style><title>gplus</title><path class="st0" d="M6.8 6.7c0 .2.1.4.2.6.2.2.4.4.6.5l.8.6c.2.2.4.5.6.8.2.3.3.7.2 1.1 0 .5-.1.9-.4 1.4-.4.6-1 1.1-1.7 1.4-.7.3-1.5.5-2.3.4-.7 0-1.3-.1-1.9-.3-.6-.2-1-.6-1.3-1.1-.2-.3-.3-.6-.3-1s.1-.8.4-1.2c.2-.3.5-.7.9-.9 1-.5 2.1-.8 3.2-.8-.2-.2-.3-.4-.4-.6-.1-.1-.1-.3-.1-.5s.1-.5.2-.7h-.6c-.7 0-1.4-.3-2-.8-.5-.4-.8-1.1-.7-1.8 0-.4.1-.9.3-1.2.2-.4.4-.7.8-1 .4-.4.9-.6 1.4-.8.6-.2 1.1-.3 1.7-.2h3.3l-1.2.6h-1c.4.3.6.6.9 1 .2.4.3.8.3 1.2 0 .3-.1.7-.2 1-.1.3-.3.6-.5.8l-.5.5c-.2.2-.4.3-.5.5-.1.1-.2.3-.2.5zm-1.1 6.1c.3 0 .6 0 .9-.1l.8-.3c.2-.1.4-.3.6-.6 0-.2.1-.5.1-.8 0-.1 0-.3-.1-.4v-.3l-.2-.3-.3-.4c-.1 0-.2-.1-.3-.2l-.3-.2-.3-.3-.3-.2h-.4c-.3 0-.5 0-.8.1-.3 0-.5.1-.8.2l-.8.3c-.2.2-.4.4-.5.6-.1.2-.2.5-.2.8 0 .4.1.7.3 1 .2.3.4.5.7.6.3.2.6.3.9.3.3.2.7.2 1 .2zm0-6.8c.2 0 .4 0 .6-.1.2-.1.4-.2.5-.4.3-.3.4-.8.4-1.2 0-.3 0-.7-.1-1-.1-.4-.2-.7-.4-1-.2-.4-.4-.6-.7-.8-.4-.4-1.1-.5-1.6-.2-.1.1-.3.2-.4.4-.3.4-.4.8-.4 1.3 0 .3 0 .5.1.8 0 .2.1.5.2.8l.4.7c.2.2.4.4.6.5.3.1.5.2.8.2zm6.3 0h1.7v.8h-1.7v1.7h-.8v-1.7h-1.7v-.9h1.7v-1.7h.8v1.8z"/></svg>