<svg xmlns="http://www.w3.org/2000/svg" viewBox="0 0 15 11.94"><defs><style>.cls-1{fill:#1d1d1b;}</style></defs><title>home</title><g id="Layer_2" data-name="Layer 2"><g id="home"><path class="cls-1" d="M14.36,6.92a.32.32,0,0,1-.19.1h0A.29.29,0,0,1,13.94,7L7.5,1.59,1.06,7A.32.32,0,0,1,.84,7a.31.31,0,0,1-.19-.1L.07,6.24a.3.3,0,0,1,0-.42L6.79.24a1.15,1.15,0,0,1,1.41,0l2.27,1.9V.33a.29.29,0,0,1,.3-.3h1.79a.29.29,0,0,1,.3.3v3.8l2,1.69a.31.31,0,0,1,0,.42Zm-1.5,4.42a.6.6,0,0,1-.6.6H8.69V8.37H6.31v3.57H2.74a.6.6,0,0,1-.6-.6V6.88s0,0,0-.06L7.5,2.41l5.35,4.41a.12.12,0,0,1,0,.06Z"/></g></g></svg>