<svg xmlns="http://www.w3.org/2000/svg" viewBox="0 0 15 14" enable-background="new 0 0 15 14"><style type="text/css">.st0{fill:#1C1C1B;}</style><title>info</title><path class="st0" d="M12.7 4c.5.9.8 1.9.8 3s-.3 2.1-.8 3c-.5.9-1.3 1.7-2.2 2.2-.9.5-1.9.8-3 .8s-2.1-.3-3-.8c-.9-.5-1.7-1.3-2.2-2.2-.5-.9-.8-1.9-.8-3s.3-2.1.8-3c.5-.9 1.3-1.7 2.2-2.2.9-.5 1.9-.8 3-.8s2.1.3 3 .8c.9.5 1.7 1.3 2.2 2.2zm-3.2 6.8v-1.3c0-.1-.1-.2-.2-.2h-.8v-4c0-.2-.1-.3-.2-.3h-2.6c-.1 0-.2.1-.2.2v1.2c0 .1.1.2.2.2h.8v2.5h-.8c-.1 0-.2.1-.2.2v1.2c0 .1.1.2.2.2h3.5c.2.3.3.2.3.1zm-1-7v-1.3c0-.1-.1-.2-.2-.2h-1.6c-.1 0-.2.1-.2.2v1.2c0 .2.1.3.2.3h1.5c.2 0 .3-.1.3-.2z"/></svg>