<svg xmlns="http://www.w3.org/2000/svg" viewBox="0 0 14.71 13.91"><defs><style>.cls-1{fill:#231f20;}</style></defs><title>keys</title><g id="Layer_2" data-name="Layer 2"><g id="keys"><path class="cls-1" d="M13.7,10.51c-.23,0-.93-.82-1.12-1l-.84.84,1.92,1.92a.85.85,0,0,1,.24.59,1.19,1.19,0,0,1-1,1,.85.85,0,0,1-.59-.24L6.41,7.8A5.45,5.45,0,0,1,3.22,8.95,3.07,3.07,0,0,1,0,5.73,6.17,6.17,0,0,1,5.73,0,3.07,3.07,0,0,1,8.95,3.22,5.45,5.45,0,0,1,7.8,6.41l3.1,3.1.84-.84c-.18-.18-1-.89-1-1.12a2.42,2.42,0,0,1,1-1,.3.3,0,0,1,.2.09,28.59,28.59,0,0,1,2.76,2.88A2.42,2.42,0,0,1,13.7,10.51ZM5.59,1.68A1.68,1.68,0,0,0,3.92,3.36a1.72,1.72,0,0,0,.17.73,1.72,1.72,0,0,0-.73-.17A1.68,1.68,0,1,0,5,5.59a1.72,1.72,0,0,0-.17-.73A1.72,1.72,0,0,0,5.59,5a1.68,1.68,0,1,0,0-3.36Z"/></g></g></svg>