<svg xmlns="http://www.w3.org/2000/svg" viewBox="0 0 15 14" enable-background="new 0 0 15 14"><style type="text/css">.st0{fill:#1C1C1B;}</style><title>list-view</title><path class="st0" d="M3.8 5.5h-2.6c-.2 0-.4.1-.5.2-.1.2-.2.4-.2.5v1.5c0 .2.1.4.2.5.1.1.3.2.5.2h2.5c.4 0 .8-.3.8-.8v-1.4c0-.4-.3-.7-.7-.7zM3.8 1.5h-2.6c-.2 0-.4.1-.5.2-.1.2-.2.4-.2.5v1.5c0 .2.1.4.2.5.1.1.3.2.5.2h2.5c.4 0 .7-.3.8-.7v-1.5c0-.4-.3-.7-.7-.7zM3.8 9.5h-2.6c-.4 0-.8.3-.8.8v1.5c0 .2.1.4.2.5.1.1.3.2.5.2h2.5c.4 0 .8-.3.8-.8v-1.5c.1-.4-.2-.7-.6-.7zM14.3 1.7c-.1-.1-.3-.2-.5-.2h-7.6c-.4 0-.8.3-.8.8v1.5c0 .4.3.8.8.8h7.5c.4 0 .8-.3.8-.8v-1.6c0-.1-.1-.3-.2-.5zM13.8 9.5h-7.6c-.4 0-.8.3-.8.8v1.5c0 .4.3.8.8.8h7.5c.4 0 .8-.3.8-.8v-1.5c0-.5-.3-.8-.7-.8zM13.8 5.5h-7.6c-.4 0-.8.3-.8.8v1.5c0 .4.3.8.8.8h7.5c.4 0 .8-.3.8-.8v-1.6c0-.4-.3-.7-.7-.7z"/></svg>