<svg xmlns="http://www.w3.org/2000/svg" viewBox="0 0 15.02 12.71"><defs><style>.cls-1{fill:#1c1c1b;}</style></defs><title>musica</title><path class="cls-1" d="M15 7.49a7.48 7.48 0 0 1-.54 2.83l-.18.44-1.67.3a2.3 2.3 0 0 1-2.23 1.71v.29a.28.28 0 0 1-.08.21.28.28 0 0 1-.21.08h-.56a.28.28 0 0 1-.29-.29v-5.19a.28.28 0 0 1 .29-.29h.58a.28.28 0 0 1 .29.29v.29a2.24 2.24 0 0 1 1.17.32 2.34 2.34 0 0 1 .84.86l.59-.11a6 6 0 0 0 .26-1.74 4.44 4.44 0 0 0-.77-2.49 5.73 5.73 0 0 0-2.13-1.89 6.11 6.11 0 0 0-5.7 0 5.72 5.72 0 0 0-2.13 1.89 4.44 4.44 0 0 0-.79 2.52 6 6 0 0 0 .26 1.71l.61.11a2.34 2.34 0 0 1 .84-.86 2.24 2.24 0 0 1 1.17-.32v-.29a.28.28 0 0 1 .29-.29h.58a.28.28 0 0 1 .29.29v5.2a.28.28 0 0 1-.08.21.28.28 0 0 1-.21.08h-.58a.27.27 0 0 1-.21-.08.28.28 0 0 1-.08-.21v-.29a2.23 2.23 0 0 1-1.41-.48 2.26 2.26 0 0 1-.82-1.23l-1.67-.3-.18-.44a7.46 7.46 0 0 1-.54-2.84 6 6 0 0 1 .6-2.63 7.08 7.08 0 0 1 1.62-2.19 7.74 7.74 0 0 1 2.4-1.47 7.84 7.84 0 0 1 5.78 0 7.74 7.74 0 0 1 2.4 1.48 7.07 7.07 0 0 1 1.62 2.19 6 6 0 0 1 .58 2.62z" transform="translate(0 -.65)"/></svg>