<svg xmlns="http://www.w3.org/2000/svg" viewBox="0 0 14 14"><defs><style>.cls-1{fill:#1d1d1b;}</style></defs><title>pencil</title><path class="cls-1" d="M8.19 2.47l3.81 3.84-7.66 7.69h-3.84v-3.84zm-4.34 10.35l.85-.82-2.18-2.2-.84.84v1h1.19v1.18zm4.84-8.58a.18.18 0 0 0-.2-.2.21.21 0 0 0-.16.06l-5 5a.21.21 0 0 0-.06.16.18.18 0 0 0 .2.2.21.21 0 0 0 .16-.06l5-5a.21.21 0 0 0 .06-.16zm5.81-.89a1.13 1.13 0 0 1-.34.83l-1.54 1.54-3.84-3.84 1.53-1.53a1.1 1.1 0 0 1 .83-.35 1.14 1.14 0 0 1 .86.35l2.17 2.16a1.18 1.18 0 0 1 .33.84z" transform="translate(-.5)"/></svg>