<svg xmlns="http://www.w3.org/2000/svg" viewBox="0 0 15 14" enable-background="new 0 0 15 14"><style type="text/css">.st0{fill:#000001;}</style><path class="st0" d="M13 7l1.2-1.2c.2-.2.2-.4.2-.6-.1-.2-.2-.4-.5-.5l-1.7-.4.5-1.7c.1-.2 0-.4-.2-.6-.2-.2-.4-.2-.6-.2l-1.7.5-.4-1.7c0-.2-.2-.4-.4-.5-.3-.1-.5 0-.7.2l-1.2 1.2-1.2-1.2c-.2-.2-.4-.3-.6-.2-.2 0-.4.2-.5.5l-.4 1.7-1.7-.5c-.2-.1-.5 0-.6.2-.2.2-.3.4-.2.6l.5 1.6-1.7.5c-.3 0-.4.2-.5.4-.1.2 0 .5.2.6l1.2 1.3-1.2 1.2c-.3.2-.3.6 0 .9.1.1.2.2.3.2l1.7.4-.5 1.7c-.1.2 0 .5.2.6.2.2.4.2.6.2l1.7-.5.4 1.7c0 .2.2.4.5.5.2.1.5 0 .6-.2l1.2-1.2 1.2 1.2c.1.1.3.2.5.2h.2c.2-.1.4-.2.5-.5l.4-1.7 1.7.5c.4.1.7-.1.8-.5v-.3l-.5-1.7 1.7-.4c.3-.1.6-.4.5-.8 0-.1-.1-.2-.2-.3l-1.3-1.2zm-7.8.1c-.2-.2-.3-.6-.3-1 0-.9.3-1.4 1.1-1.4.3 0 .6.1.8.4.1.3.2.7.2 1 0 .4-.1.7-.3 1-.2.3-.5.4-.8.4-.3 0-.6-.1-.7-.4zm1.4 2.1h-.7l2.5-4.5h.7l-2.5 4.5zm3.3-.3c-.2.3-.5.4-.8.4-.3 0-.6-.1-.8-.4-.2-.3-.3-.6-.3-1 0-.9.3-1.4 1.1-1.4.3 0 .6.1.8.4.2.3.3.6.3 1-.1.4-.1.7-.3 1zm-3.7-2.8c0-.5-.1-.8-.3-.8-.1 0-.2.1-.2.2 0 .2-.1.4 0 .6 0 .2 0 .4.1.6 0 .1.1.2.2.2s.2-.3.2-.8zm2.9 1c-.1 0-.2.1-.3.2v.6c0 .2 0 .4.1.6 0 .1.1.2.2.2.2 0 .3-.3.3-.8s-.1-.8-.3-.8z"/></svg>