<svg xmlns="http://www.w3.org/2000/svg" viewBox="0 0 15 14" enable-background="new 0 0 15 14"><style type="text/css">.st0{fill:#1C1C1B;}</style><title>phone</title><path class="st0" d="M13 10.2c0 .2 0 .4-.1.6 0 .2-.1.4-.2.5-.2.4-.6.7-1 .8-.4.3-.9.4-1.4.4h-.4c-.2 0-.3-.1-.4-.1l-.4-.1-.8-.3-1.4-.6c-.8-.5-1.4-1.1-2.1-1.7-.6-.7-1.1-1.4-1.6-2.1-.3-.5-.5-.9-.7-1.4l-.1-.4-.2-.4c0-.1-.1-.2-.1-.4l-.1-.4v-.4c0-.5.1-1 .4-1.5.2-.4.5-.8.8-1 .2-.1.4-.1.5-.2h.7c.2.2 1.4 2.3 1.5 2.4.1.1.1.2.1.3 0 .2-.1.3-.2.4l-.5.4-.5.4c-.1.1-.2.2-.2.4 0 .1.1.3.1.3l.1.2.1.1c.4.7.8 1.3 1.4 1.8.5.5 1.2 1 1.8 1.4l.1.1.2.1.2.1h.2c.1 0 .3-.1.4-.2l.4-.5c.1-.2.2-.3.4-.5.1-.1.2-.2.4-.2.1 0 .2 0 .2.1 0 0 2.2 1.3 2.4 1.4v.2z"/></svg>