<svg xmlns="http://www.w3.org/2000/svg" viewBox="0 0 14.99 12.99"><defs><style>.cls-1{fill:#1c1c1b;}</style></defs><title>fotos</title><path class="cls-1" d="M13 2.5a1.92 1.92 0 0 1 1.41.59 1.93 1.93 0 0 1 .59 1.41v7a2 2 0 0 1-2 2h-11a1.93 1.93 0 0 1-1.41-.59 1.93 1.93 0 0 1-.59-1.41v-7a1.93 1.93 0 0 1 .59-1.41 1.93 1.93 0 0 1 1.41-.59h1.75l.4-1.06a1.45 1.45 0 0 1 .54-.66 1.38 1.38 0 0 1 .81-.27h4a1.39 1.39 0 0 1 .81.28 1.45 1.45 0 0 1 .54.66l.4 1.06h1.75zm-8 8a3.36 3.36 0 0 0 2.47 1 3.36 3.36 0 0 0 2.47-1 3.37 3.37 0 0 0 1.06-2.5 3.37 3.37 0 0 0-1-2.47 3.37 3.37 0 0 0-2.47-1 3.37 3.37 0 0 0-2.53 1 3.36 3.36 0 0 0-1 2.47 3.36 3.36 0 0 0 1 2.47zm.91-4.09a2.24 2.24 0 0 1 3.18 0 2.24 2.24 0 0 1 0 3.18 2.24 2.24 0 0 1-3.18 0 2.24 2.24 0 0 1 0-3.18z" transform="translate(-.01 -.51)"/></svg>