<svg xmlns="http://www.w3.org/2000/svg" viewBox="0 0 15 14" enable-background="new 0 0 15 14"><style type="text/css">.st0{fill:none;}</style><title>garbarino-viajes</title><path class="st0" d="M0 0h15v14h-15v-14z"/><path d="M9.4 5.6s1.6-.5 2.6-.8 2.8-.5 3-.2-1.2 1.4-2.1 1.7l-2.8 1.1c.1.1.1.3.1.4.1.2 0 .2 0 .2s-.6.2-1 .3c-.3.1-.6.1-.9.1 0 0 0-.2-.1-.1-1.1.2-2.3.4-3.5.5l-3.7-.3-.1-.2 1-.4-.7-.1-1.2-1.8s-.1-.1 0-.1h.5l2.8 1.2c.5.1 1.1.1 1.6.1.5-.2 1.1-.4 1.6-.7l.9.7h.2c0-.1 0-.1-.1-.2-.4-.5-2.3-2.8-2.3-2.9-.1-.3-.1-.6-.1-.9h.2l.5.4v.4l.4-.2 3.2 1.8zm-8.3 3.9h7.1v1.1h-7.1v-1.1z"/></svg>