<?xml version="1.0" encoding="utf-8"?>
<!-- Generator: Adobe Illustrator 19.2.1, SVG Export Plug-In . SVG Version: 6.00 Build 0)  -->
<svg version="1.1" id="Capa_1" xmlns="http://www.w3.org/2000/svg" xmlns:xlink="http://www.w3.org/1999/xlink" x="0px" y="0px"
	 viewBox="0 0 15 14" style="enable-background:new 0 0 15 14;" xml:space="preserve">
<style type="text/css">
	.st0{fill:#1C1C1B;}
</style>
<title>play</title>
<path class="st0" d="M12.7,4c0.5,0.9,0.8,1.9,0.8,3c0,1.1-0.3,2.1-0.8,3c-0.5,0.9-1.3,1.7-2.2,2.2c-0.9,0.5-1.9,0.8-3,0.8
	c-1.1,0-2.1-0.3-3-0.8c-0.9-0.5-1.7-1.3-2.2-2.2C1.8,9.1,1.5,8.1,1.5,7c0-1.1,0.3-2.1,0.8-3c0.5-0.9,1.3-1.7,2.2-2.2
	C5.4,1.3,6.4,1,7.5,1c1.1,0,2.1,0.3,3,0.8C11.4,2.3,12.2,3.1,12.7,4z M11.2,9.1c0.8-1.3,0.8-2.9,0-4.3c-0.4-0.6-0.9-1.2-1.6-1.5
	c-1.3-0.8-2.9-0.8-4.3,0C4.7,3.7,4.2,4.2,3.8,4.9c-0.8,1.3-0.8,2.9,0,4.3c0.4,0.6,0.9,1.2,1.5,1.6c1.3,0.8,2.9,0.8,4.3,0
	C10.3,10.3,10.8,9.8,11.2,9.1z M10.8,7c0,0.2-0.1,0.3-0.2,0.4L6.2,9.9C6.2,10,6.1,10,6,10c-0.1,0-0.2,0-0.2-0.1
	C5.6,9.9,5.5,9.7,5.5,9.5v-5c0-0.2,0.1-0.4,0.2-0.4C5.9,4,6.1,4,6.2,4.1l4.2,2.5C10.7,6.6,10.8,6.8,10.8,7z"/>
</svg>
