<svg id="preferences" xmlns="http://www.w3.org/2000/svg" viewBox="0 0 15 14"><defs><style>.cls-1{fill:#1d1d1b;}</style></defs><title>Mesa de trabajo 1</title><path class="cls-1" d="M14.24,5.68l-1.67-.26a5.07,5.07,0,0,0-.37-.89c.31-.43.65-.83,1-1.25a.35.35,0,0,0,.07-.21.31.31,0,0,0-.06-.2,11.54,11.54,0,0,0-1.5-1.55.36.36,0,0,0-.23-.09.31.31,0,0,0-.22.08l-1.29,1A5.37,5.37,0,0,0,9.1,2L8.84.27A.33.33,0,0,0,8.51,0h-2a.33.33,0,0,0-.33.26A12,12,0,0,0,5.9,2a5.41,5.41,0,0,0-.83.35l-1.26-1a.41.41,0,0,0-.24-.09C3.26,1.23,2,2.56,1.81,2.86a.35.35,0,0,0-.08.21.34.34,0,0,0,.09.22c.34.41.67.82,1,1.26a4.78,4.78,0,0,0-.36.84l-1.7.26A.35.35,0,0,0,.5,6V8a.33.33,0,0,0,.26.33l1.67.25a4.91,4.91,0,0,0,.37.9c-.31.43-.65.83-1,1.25a.35.35,0,0,0-.07.21.35.35,0,0,0,.06.21,11.33,11.33,0,0,0,1.5,1.53.33.33,0,0,0,.23.1.35.35,0,0,0,.23-.08l1.29-1A5.37,5.37,0,0,0,5.9,12l.26,1.68a.33.33,0,0,0,.33.27h2a.34.34,0,0,0,.33-.26A12.09,12.09,0,0,0,9.1,12a5.54,5.54,0,0,0,.83-.35l1.26,1a.47.47,0,0,0,.24.08c.31,0,1.54-1.34,1.76-1.63a.3.3,0,0,0,.08-.21.36.36,0,0,0-.09-.23c-.34-.41-.67-.81-1-1.26a5.23,5.23,0,0,0,.36-.83l1.69-.26A.35.35,0,0,0,14.5,8V6A.33.33,0,0,0,14.24,5.68ZM7.5,9.33A2.33,2.33,0,1,1,9.83,7,2.34,2.34,0,0,1,7.5,9.33Z"/></svg>