<svg xmlns="http://www.w3.org/2000/svg" viewBox="0 0 15 14" enable-background="new 0 0 15 14"><style type="text/css">.st0{fill:#1C1C1B;}</style><title>question-mark-circle</title><path class="st0" d="M12.7 4c.5.9.8 1.9.8 3s-.3 2.1-.8 3c-.5.9-1.3 1.7-2.2 2.2-.9.5-1.9.8-3 .8s-2.1-.3-3-.8c-.9-.5-1.7-1.3-2.2-2.2-.5-.9-.8-1.9-.8-3s.3-2.1.8-3c.5-.9 1.3-1.7 2.2-2.2.9-.5 1.9-.8 3-.8s2.1.3 3 .8c.9.5 1.7 1.3 2.2 2.2zm-2.2 1.5c0-.5-.2-.9-.4-1.3-.6-.7-1.5-1.2-2.4-1.2-1.2 0-2.4.6-2.9 1.7-.1.1-.1.2 0 .3l1 .8h.2c.1 0 .2 0 .2-.1.2-.3.4-.5.7-.7.4-.3.9-.3 1.3 0 .2.1.3.3.3.5s0 .4-.2.5c-.1.2-.3.3-.5.3-.3.2-.6.4-.9.7-.2.3-.4.6-.4 1v.2c0 .1.1.2.2.2h1.5c.1 0 .2-.1.2-.2s.1-.3.2-.4c.1-.2.3-.3.4-.4l.4-.2c.2 0 .3-.1.4-.2.1-.1.3-.2.4-.4.1-.1.2-.3.2-.5.1-.2.1-.4.1-.6zm-2 5.3v-1.6c0-.1-.1-.2-.2-.2h-1.5c-.2 0-.3.1-.3.2v1.5c0 .1.1.2.2.2h1.5c.2.1.3 0 .3-.1z"/></svg>