<svg xmlns="http://www.w3.org/2000/svg" viewBox="0 0 15 14" enable-background="new 0 0 15 14"><style type="text/css">.st0{fill:#1C1C1B;}</style><title>search</title><path class="st0" d="M14 12.5c0 .6-.4 1-1 1-.3 0-.5-.1-.7-.3l-2.7-2.7c-.9.7-2 1-3.1 1-.7 0-1.5-.1-2.1-.4-1.4-.6-2.4-1.6-3-3-.6-1.4-.6-2.9 0-4.3.6-1.3 1.6-2.3 3-2.9 1.4-.6 2.9-.6 4.3 0 1.3.6 2.3 1.6 2.9 3 .3.6.4 1.4.4 2.1 0 1.1-.3 2.2-1 3.1l2.7 2.7c.2.2.3.4.3.7zm-5-4c.7-.7 1-1.6 1-2.5 0-.9-.3-1.8-1-2.5s-1.5-1-2.5-1c-.9 0-1.9.3-2.5 1-.7.7-1 1.6-1 2.5 0 .9.3 1.8 1 2.5s1.5 1 2.5 1c.9 0 1.8-.4 2.5-1z"/></svg>