<?xml version="1.0" encoding="utf-8"?>
<!-- Generator: Adobe Illustrator 17.0.0, SVG Export Plug-In . SVG Version: 6.00 Build 0)  -->
<!DOCTYPE svg PUBLIC "-//W3C//DTD SVG 1.1//EN" "http://www.w3.org/Graphics/SVG/1.1/DTD/svg11.dtd">
<svg version="1.1" id="Layer_1" xmlns="http://www.w3.org/2000/svg" xmlns:xlink="http://www.w3.org/1999/xlink" x="0px" y="0px"
	 width="1053px" height="792px" viewBox="-220.5 0 1053 792" enable-background="new -220.5 0 1053 792" xml:space="preserve">
<title>envios</title>
<g>
	<rect x="28.01" y="341.666" width="144.083" height="31.066"/>
	<rect x="-95.719" y="217.937" width="267.813" height="31.066"/>
	<rect x="-34.122" y="279.534" width="206.216" height="31.066"/>
	<path d="M625.41,272.139L512.388,54.519H-220.5v54.054h702l105.3,205.686l191.646,82.134v198.666h-30.888
		c-11.689-58.156-68.309-95.824-126.465-84.135c-42.436,8.53-75.605,41.699-84.135,84.135H126.99
		c-11.689-58.156-68.309-95.824-126.465-84.135c-42.436,8.53-75.605,41.699-84.135,84.135h-27.378v-224.64h-54.054v280.8H-80.1
		c11.689,58.156,68.309,95.824,126.465,84.135c42.436-8.53,75.605-41.699,84.135-84.135h412.776
		c11.689,58.156,68.309,95.824,126.465,84.135c42.436-8.53,75.605-41.699,84.135-84.135H832.5V360.591L625.41,272.139z
		 M22.392,675.789C22.392,675.789,22.392,675.789,22.392,675.789c-29.853,0-54.054-24.201-54.054-54.054
		s24.201-54.054,54.054-54.054c29.853,0,54.054,24.201,54.054,54.054C76.446,651.588,52.245,675.789,22.392,675.789z
		 M643.662,675.789c-29.853,0-54.054-24.201-54.054-54.054c0-29.853,24.201-54.054,54.054-54.054s54.054,24.201,54.054,54.054
		C697.716,651.588,673.515,675.789,643.662,675.789z"/>
</g>
</svg>
