<svg xmlns="http://www.w3.org/2000/svg" viewBox="0 0 13.75 14"><defs><style>.cls-1{fill:#1d1d1b;}</style></defs><title>sort</title><g id="Layer_2" data-name="Layer 2"><g id="sort"><rect class="cls-1" x="6.75" y="12" width="7" height="2" rx="0.25" ry="0.25"/><rect class="cls-1" x="6.75" width="2.5" height="2" rx="0.25" ry="0.25"/><rect class="cls-1" x="6.75" y="4" width="4" height="2" rx="0.25" ry="0.25"/><path class="cls-1" d="M5.25,11H3.75V.25A.25.25,0,0,0,3.5,0H2a.25.25,0,0,0-.25.25V11H.25a.25.25,0,0,0-.18.43l2.5,2.5a.26.26,0,0,0,.36,0l2.49-2.49a.29.29,0,0,0,.08-.19A.25.25,0,0,0,5.25,11Z"/><rect class="cls-1" x="6.75" y="8" width="5.5" height="2" rx="0.25" ry="0.25"/></g></g></svg>