<svg xmlns="http://www.w3.org/2000/svg" viewBox="0 0 13.59 13.59"><defs><style>.cls-1{fill:#1d1d1b;}</style></defs><title>tagpre</title><g id="Layer_2" data-name="Layer 2"><g id="tag"><path class="cls-1" d="M13.26,8.85,8.85,13.26a1.19,1.19,0,0,1-.82.33,1.15,1.15,0,0,1-.81-.33L.82,6.84a3.12,3.12,0,0,1-.82-2V1.15A1.16,1.16,0,0,1,1.15,0H4.88a3.17,3.17,0,0,1,2,.82l6.41,6.41a1.19,1.19,0,0,1,.33.82A1.16,1.16,0,0,1,13.26,8.85ZM2.87,1.72A1.15,1.15,0,1,0,4,2.87,1.14,1.14,0,0,0,2.87,1.72Z"/></g></g></svg>