<svg xmlns="http://www.w3.org/2000/svg" viewBox="0 0 15 14" enable-background="new 0 0 15 14"><style type="text/css">.st0{fill:#1C1C1B;}</style><title>trash</title><path class="st0" d="M13 3.2v.5c0 .2-.1.3-.2.3h-.8v7.4c0 .4-.1.8-.4 1.1-.2.3-.5.5-.9.5h-6.5c-.3 0-.7-.2-.9-.5-.2-.3-.3-.7-.3-1.1v-7.4h-.8c-.1 0-.2-.1-.2-.2v-.6c0-.1.1-.2.2-.2h2.4l.6-1.3c.1-.2.2-.4.4-.5.2-.1.4-.2.6-.2h2.5c.3 0 .5.1.7.2.2.1.3.3.4.5l.5 1.3h2.4c.2 0 .3.1.3.2zm-2 8.2v-7.4h-7v7.4c0 .1 0 .2.1.3l.1.2s0 .1.1.1h6.5s.1 0 .1-.1l.1-.2v-.3zm-5-5.6v4.5c0 .1-.1.2-.2.2h-.6c-.1 0-.2-.1-.2-.2v-4.5c0-.1.1-.2.2-.2h.5c.2-.1.3 0 .3.2zm-.2-2.8h3.5l-.4-.9c-.1-.1-.1-.1-.2-.1h-2.4c-.1 0-.1 0-.2.1l-.3.9zm2.2 2.8v4.5c0 .1-.1.2-.2.2h-.6c-.1 0-.2-.1-.2-.2v-4.5c0-.1.1-.2.2-.2h.5c.2-.1.3 0 .3.2zm2 0v4.5c0 .1-.1.2-.2.2h-.6c-.1 0-.2-.1-.2-.2v-4.5c0-.1.1-.2.2-.2h.5c.2-.1.3 0 .3.2z"/></svg>