<svg xmlns="http://www.w3.org/2000/svg" viewBox="0 0 15 14" enable-background="new 0 0 15 14"><style type="text/css">.st0{fill:#1C1C1B;}</style><path class="st0" d="M13.7 3.2c-.3.5-.8.9-1.3 1.3v.3c0 .7-.1 1.4-.3 2-.2.7-.5 1.3-.9 1.9-.4.6-.9 1.2-1.4 1.6-.6.5-1.3.9-2 1.1-.9.4-1.7.6-2.6.6-1.4 0-2.7-.4-3.9-1.1h.6c1.1 0 2.2-.4 3.1-1.1-1.1 0-2-.7-2.4-1.8h.5c.2 0 .4 0 .7-.1-.5 0-1-.3-1.4-.8-.4-.4-.6-1-.6-1.6.4.2.8.3 1.2.3-.3-.2-.6-.5-.8-.9-.4-.8-.4-1.7 0-2.5.6.8 1.4 1.4 2.3 1.9.9.5 1.9.7 2.9.8l-.1-.6c0-.7.3-1.3.7-1.8 1-1 2.6-1 3.6 0l.1.1c.6-.1 1.1-.3 1.6-.6-.2.6-.6 1.1-1.1 1.4.5-.1 1-.2 1.5-.4z"/></svg>