<svg xmlns="http://www.w3.org/2000/svg" viewBox="0 0 15 14" enable-background="new 0 0 15 14"><style type="text/css">.st0{fill:#1C1C1B;}</style><path class="st0" d="M4.6 7c-.8 0-1.5.4-2 1h-1c-.4 0-.8-.1-1.2-.3-.3-.2-.4-.6-.4-.9 0-1.9.3-2.8 1-2.8.1 0 .2.1.3.2.2.1.5.2.8.3.3.1.6.2.9.2.3 0 .7-.1 1-.2v.5c0 .7.2 1.4.6 2zm-.2-6.4c.4.4.6.9.6 1.4 0 .5-.2 1-.6 1.4-.4.4-.9.6-1.4.6-.5 0-1-.2-1.4-.6-.4-.4-.6-.9-.6-1.4 0-.5.2-1 .6-1.4.4-.4.9-.6 1.4-.6.5 0 1 .2 1.4.6zm8.6 11.4c0 .6-.2 1.1-.6 1.5-.4.4-1 .6-1.5.5h-6.8c-.6 0-1.1-.2-1.5-.5-.4-.4-.6-.9-.6-1.5v-.8l.1-.9.2-.9c.1-.2.2-.4.4-.7l.4-.6c.2-.2.4-.3.7-.4.3-.1.6-.2.9-.2.1 0 .2.1.3.2l.6.3c.3.2.5.3.8.4.7.2 1.4.2 2.1 0 .4-.1.6-.2.9-.4l.6-.3.3-.2c.3 0 .6.1.9.2.2.1.5.2.7.4.2.2.4.4.5.6.1.2.3.5.3.8.1.3.2.6.2.9.1.3.1.6.1.9v.7zm-3.4-9.1c.6.6.9 1.3.9 2.1s-.3 1.6-.9 2.1c-.5.6-1.3.9-2.1.9s-1.6-.3-2.1-.9c-.6-.5-.9-1.3-.9-2.1s.3-1.6.9-2.1c.5-.6 1.3-.9 2.1-.9s1.6.3 2.1.9zm3.8-2.3c.4.4.6.9.6 1.4 0 .5-.2 1-.6 1.4-.8.8-2 .8-2.8 0-.4-.4-.6-.9-.6-1.4 0-.5.2-1 .6-1.4.8-.8 2-.8 2.8 0zm1.6 6.2c0 .4-.1.7-.4.9-.4.2-.7.3-1.1.3h-1c-.5-.6-1.3-1-2.1-1 .4-.6.6-1.3.6-2v-.5c.3.1.7.2 1 .2.3 0 .6-.1.9-.2l.8-.3c.1-.1.2-.2.3-.2.7 0 1 .9 1 2.8z"/></svg>