<svg xmlns="http://www.w3.org/2000/svg" viewBox="0 0 15 14" enable-background="new 0 0 15 14"><style type="text/css">.st0{fill:#1C1C1B;}</style><title>user</title><path class="st0" d="M13 11c0 .6-.2 1.1-.6 1.5-.4.4-1 .6-1.5.5h-6.8c-.6 0-1.1-.2-1.5-.5-.4-.4-.6-.9-.6-1.5v-.8l.1-.9.2-.9c.1-.2.2-.4.4-.7l.4-.6c.2-.2.4-.3.7-.4.3-.1.6-.2.9-.2.1 0 .2.1.3.2l.6.3c.3.2.5.3.8.4.7.2 1.4.2 2.1 0 .3-.1.6-.2.9-.4l.6-.3.3-.2c.3 0 .6.1.9.2.2.1.5.2.7.4.2.2.4.4.5.6.1.2.3.5.3.8.1.3.2.6.2.9.1.3.1.6.1.9v.7zm-3.4-9.1c.6.6.9 1.3.9 2.1s-.3 1.6-.9 2.1c-.5.6-1.3.9-2.1.9s-1.6-.3-2.1-.9c-.6-.5-.9-1.3-.9-2.1s.3-1.6.9-2.1c.5-.6 1.3-.9 2.1-.9s1.6.3 2.1.9z"/></svg>