<svg xmlns="http://www.w3.org/2000/svg" viewBox="0 0 15 13"><defs><style>.cls-1{fill:#1c1c1b;}</style></defs><title>video</title><path class="cls-1" d="M15 1.75v10.5a1.25 1.25 0 0 1-1.25 1.25h-12.5a1.2 1.2 0 0 1-.88-.37 1.2 1.2 0 0 1-.37-.88v-10.5a1.2 1.2 0 0 1 .37-.88 1.2 1.2 0 0 1 .88-.37h12.5a1.2 1.2 0 0 1 .88.37 1.2 1.2 0 0 1 .37.88zm-12 1.25v-1a.51.51 0 0 0-.5-.5h-1a.48.48 0 0 0-.35.15.48.48 0 0 0-.15.35v1a.48.48 0 0 0 .15.35.48.48 0 0 0 .35.15h1a.51.51 0 0 0 .5-.5zm0 3v-1a.51.51 0 0 0-.5-.5h-1a.48.48 0 0 0-.35.15.48.48 0 0 0-.15.35v1a.48.48 0 0 0 .15.35.48.48 0 0 0 .35.15h1a.51.51 0 0 0 .5-.5zm0 3v-1a.51.51 0 0 0-.5-.5h-1a.48.48 0 0 0-.35.15.48.48 0 0 0-.15.35v1a.48.48 0 0 0 .15.35.48.48 0 0 0 .35.15h1a.51.51 0 0 0 .5-.5zm0 3v-1a.51.51 0 0 0-.5-.5h-1a.51.51 0 0 0-.5.5v1a.51.51 0 0 0 .5.5h1a.51.51 0 0 0 .5-.5zm8-6v-4a.51.51 0 0 0-.5-.5h-6a.51.51 0 0 0-.5.5v4a.51.51 0 0 0 .5.5h6a.51.51 0 0 0 .5-.5zm0 6v-4a.51.51 0 0 0-.5-.5h-6a.51.51 0 0 0-.5.5v4a.51.51 0 0 0 .5.5h6a.51.51 0 0 0 .5-.5zm3-9v-1a.51.51 0 0 0-.5-.5h-1a.51.51 0 0 0-.5.5v1a.51.51 0 0 0 .5.5h1a.51.51 0 0 0 .5-.5zm0 3v-1a.51.51 0 0 0-.5-.5h-1a.51.51 0 0 0-.5.5v1a.51.51 0 0 0 .5.5h1a.51.51 0 0 0 .5-.5zm0 3v-1a.51.51 0 0 0-.5-.5h-1a.51.51 0 0 0-.5.5v1a.51.51 0 0 0 .5.5h1a.51.51 0 0 0 .5-.5zm0 3v-1a.51.51 0 0 0-.5-.5h-1a.51.51 0 0 0-.5.5v1a.51.51 0 0 0 .5.5h1a.51.51 0 0 0 .5-.5z" transform="translate(0 -.5)"/></svg>