<svg xmlns="http://www.w3.org/2000/svg" viewBox="0 0 13.41 13.51"><defs><style>.cls-1{fill:#231f20;}</style></defs><title>wapp</title><g id="Layer_2" data-name="Layer 2"><g id="wapp"><path class="cls-1" d="M13.41,6.58a6.58,6.58,0,0,1-9.77,5.76L0,13.51,1.19,10a6.58,6.58,0,1,1,12.22-3.4Zm-1.1,0A5.48,5.48,0,1,0,2.39,9.79l-.69,2,2.11-.67a5.47,5.47,0,0,0,8.49-4.57Zm-2.08,1.7a.36.36,0,0,1,0,.13,1.93,1.93,0,0,1-.15.66,1.81,1.81,0,0,1-1.51.8,5.7,5.7,0,0,1-1.66-.54A6.81,6.81,0,0,1,4.15,6.69,3.09,3.09,0,0,1,3.53,5V4.93a1.83,1.83,0,0,1,.65-1.38.63.63,0,0,1,.45-.19l.32,0c.24,0,.28.07.37.3S5.83,5,5.83,5.11c0,.33-.6.71-.6.91a.26.26,0,0,0,0,.13,4.41,4.41,0,0,0,.89,1.2,5.15,5.15,0,0,0,1.32.88.39.39,0,0,0,.19.06c.26,0,.7-.85.93-.85A8.51,8.51,0,0,1,10.23,8.28Z"/></g></g></svg>