<svg xmlns="http://www.w3.org/2000/svg" viewBox="0 0 15 14" enable-background="new 0 0 15 14"><style type="text/css">.st0{fill:#1C1C1B;}</style><path class="st0" d="M11.3 9.2c-.2 0-.3.2-.3.5v.4h.7v-.4c0-.3-.1-.5-.4-.5zM9.5 5.3c.3 0 .6-.2.8-.5v.4h.7v-3.9h-.7v3c-.1.2-.3.3-.5.3-.1 0-.2-.1-.1-.2v-3.0999999999999996h-.7v3.7c.1.2.3.3.5.3zM7.4 5.3c.3 0 .6-.1.8-.4.2-.3.3-.6.2-.9v-1.4c0-.3 0-.6-.2-.9-.2-.3-.5-.4-.9-.4-.3 0-.6.1-.8.4-.1.3-.2.6-.2.9v1.4c0 .3.1.6.3.9.2.3.5.4.8.4zm-.4-2.8c0-.4.1-.5.3-.5.2 0 .3.2.3.5v1.6c0 .4-.1.6-.3.6-.2 0-.3-.2-.3-.6v-1.6zM8.8 9.2c-.1 0-.3.1-.3.2v2.3c.1.1.2.2.3.2.2 0 .3-.2.3-.5v-1.7c0-.3-.1-.5-.3-.5zM13.1 7.2c-.1-.6-.6-1.1-1.2-1.1-1-.1-2.4-.2-4.3-.2s-3.5.1-4.4.2c-.3 0-.6.2-.8.4-.3.2-.4.5-.5.8-.1.9-.2 1.8-.2 2.7 0 .9 0 1.8.2 2.7.1.3.2.6.5.8.2.2.5.3.8.4 1.4.1 2.9.1 4.3.1s2.9 0 4.3-.1c.3 0 .6-.2.8-.4.2-.2.4-.5.5-.8.2-.9.2-1.8.2-2.7 0-.9 0-1.8-.2-2.8zm-8.1.8h-.8v4.5h-.8v-4.5h-.8v-.7h2.4v.7zm2.1 4.5h-.7v-.5c-.2.3-.5.5-.8.5-.2 0-.4-.1-.5-.3l-.1-.6v-3h.7v3.1999999999999997c0 .1.1.2.2.2.2 0 .4-.2.5-.3v-3h.7v3.8zm2.7-1.2c0 .3 0 .5-.1.8-.1.3-.3.4-.6.4s-.6-.2-.7-.4v.4h-.7v-5.2h.7v1.7c.2-.3.4-.4.7-.4.3 0 .5.2.6.4.1.3.1.5.1.8v1.5zm2.6-.6h-1.4v.7c0 .4.1.5.4.5.2 0 .3-.1.3-.3v-.5h.7v.6c-.1.5-.5.8-1 .8-.3 0-.6-.1-.8-.4-.2-.3-.3-.6-.2-.9v-1.3c0-.3.1-.6.2-.9 0-.1.1-.1.2-.2.5-.4 1.1-.3 1.5.2.2.3.2.6.2.9v.8zM4.6 3.1v2.1h.8v-2.1l.9-3.1h-.8l-.5 2-.6-2h-.8c.1.4.3.9.5 1.5l.5 1.6z"/></svg>